
        <svg xmlns="http://www.w3.org/2000/svg" xmlns:xlink="http://www.w3.org/1999/xlink" version="1.1" width="3250" height="1012.5" viewBox="0 0 3250 1012.5">
			
			<g transform="scale(12.5) translate(10, 10)">
				<defs id="SvgjsDefs1861"/><g id="SvgjsG1862" featureKey="rootContainer" transform="matrix(1,0,0,1,0,0)" fill="#000"><rect xmlns="http://www.w3.org/2000/svg" width="240" height="61" rx="10" ry="10"/></g><g id="SvgjsG1863" featureKey="q4o0QG-0" transform="matrix(1.308215291003844,0,0,1.308215291003844,19.6598638808637,14.296183027974639)" fill="#ffffff"><path d="M4.82 19.46 l0.04 -0.04 c0 -0.02 0 -0.02 -0.04 -0.04 l0 0 l-0.02 0 c-0.02 0 -0.04 0 -0.06 0.04 l0 -0.02 s-0.02 0.04 -0.1 0.04 s-0.2 -0.02 -0.36 -0.14 c0 0.02 -0.02 0.02 -0.02 0.02 c-0.04 0 -0.2 -0.22 -0.26 -0.22 c-0.1 0 -0.38 -0.08 -1.62 -1.32 l0 -0.08 c-0.24 -0.12 -0.5 -0.46 -0.58 -0.62 c-0.04 -0.78 -0.62 -0.22 -0.62 -1.2 c-0.02 0 -0.06 0.04 -0.06 0.04 c0.02 0 0.02 0 0.02 -0.02 c0 -0.06 -0.48 -0.42 -0.48 -0.84 c-0.12 -0.9 -0.2 -0.54 -0.2 -1.16 l-0.04 -0.04 c0 -0.2 -0.06 -0.62 -0.16 -0.8 l0.02 -1.44 l0.06 -0.82 c0.02 -0.26 0.18 -0.38 0.2 -1.18 l0 0.02 c0.02 0 0.18 -0.7 0.32 -0.84 l-0.02 0.02 c-0.02 0 0.4 -0.54 0.4 -0.68 c0 -0.16 0.52 -0.44 0.52 -0.82 c0.2 -0.18 0 -0.08 0.86 -0.92 c0.22 0 0.14 -0.36 0.36 -0.36 l-0.02 -0.04 c0.06 0 0.2 -0.12 0.42 -0.34 c0.64 -0.42 -0.4 0.04 1.7 -0.94 c0 0 0.02 0.02 0.04 0.02 c0.22 0 0.68 -0.3 1 -0.3 c0.44 0 1.8 -0.08 1.98 -0.08 c0.7 0 0.9 0.26 1.1 0.26 c0.74 0.06 0.94 0.58 1.22 0.58 c0.02 0 0.02 -0.02 0.08 -0.02 c0.08 0 0.26 0.08 0.74 0.56 c0 0.14 0.24 0.14 0.32 0.26 l-0.04 0.04 c0.1 0.04 0.48 0.32 0.64 0.64 c0 0.06 0.36 0.18 0.36 0.38 c-0.02 0 -0.02 0 -0.02 0.02 c0 0.06 0.5 0.4 0.5 0.62 c-0.02 0 -0.04 0 -0.04 0.02 c0 0.06 0.4 0.3 0.4 0.6 c0.06 0.54 0.52 0.7 0.52 1.16 c-0.02 0.02 -0.02 0.04 -0.02 0.06 c0 0.16 0.34 0.46 0.34 1.1 c0 0.8 0.16 1.36 0.16 1.48 c0 0.34 -0.2 0.94 -0.2 1.68 c-0.16 0.9 -0.92 2.58 -1.12 2.72 c-0.04 0 -0.24 0.5 -0.42 0.58 c0 -0.02 -0.7 1.04 -1.16 1.22 c-0.3 0.2 -0.18 0.26 -1.22 0.98 c-0.04 0.06 -0.4 0.02 -0.6 0.2 c-1.72 0.58 -1.68 0.46 -1.8 0.58 l-1.38 0 c-0.06 0 -0.24 -0.1 -0.34 -0.1 c-0.04 0 -0.5 -0.26 -0.8 -0.26 c-0.4 0 -0.32 -0.24 -0.5 -0.26 z M7.3 19.88 c0 0 -0.02 0.02 -0.02 0.04 l0.02 0.02 c0.02 0 0.02 -0.02 0.02 -0.02 c0 -0.02 0 -0.04 -0.02 -0.04 z M7.88 19.88 c0 0.02 -0.02 0.02 -0.02 0.02 c0 0.02 0.02 0.02 0.06 0.04 l0.04 -0.06 l-0.08 0 z M8.02 19.84 c-0.02 0 -0.04 0.02 -0.04 0.04 s0.02 0.04 0.04 0.04 l0 -0.08 z M5.92 19.78 c0 -0.02 -0.02 -0.02 -0.02 -0.02 c-0.02 0 -0.02 0 -0.02 0.02 s0 0.04 0.02 0.04 c0 0 0.02 -0.02 0.02 -0.04 z M5.86 19.72 c-0.02 0 -0.04 0.02 -0.04 0.02 c0 0.02 0.02 0.04 0.04 0.04 l0 -0.06 z M7.3 19.72 l-0.02 0.02 l0.04 0 s0 -0.02 -0.02 -0.02 z M7.84 19.7 c0 0 -0.02 0.02 -0.02 0.04 l0.04 0 c0 -0.02 0 -0.04 -0.02 -0.04 z M6.58 19.66 c-0.02 0 -0.04 0.02 -0.04 0.04 c0 0 0.02 0.02 0.04 0.02 l0 -0.06 z M7.92 19.66 c-0.02 0 -0.04 0.02 -0.04 0.04 c0 0 0.02 0.02 0.04 0.02 s0.02 -0.02 0.02 -0.02 c0 -0.02 0 -0.04 -0.02 -0.04 z M8.66 19.5 c-0.02 0 -0.04 0.02 -0.04 0.04 c0 0 0.02 0.02 0.04 0.02 s0.02 -0.02 0.02 -0.02 c0 -0.02 0 -0.04 -0.02 -0.04 z M3.72 16.36 c0.06 0.2 0.14 0.3 0.14 0.56 c0 0.3 0.32 0.56 0.32 0.94 c0.26 0.4 -0.18 -0.04 0.8 0.96 c0.02 0 0.02 -0.02 0.02 -0.02 c0.06 0 0 0.24 0.44 0.24 c-0.02 0 0.5 0.34 1.18 0.34 l0.78 0 c0.88 0 1.58 -0.06 2.24 -0.72 c-0.02 0 0.5 -0.38 0.54 -0.58 c0 0.02 0 0.04 0.02 0.04 c0.08 0 0.46 -0.96 0.46 -1.32 c0 -1.78 0.32 -2.84 0.32 -3.12 c0 -0.06 -0.04 -0.26 -0.04 -0.46 c0 -0.62 0.04 -0.84 0.04 -1.1 c0 -0.06 -0.08 -0.66 -0.08 -0.7 c0 0 -0.02 0 -0.02 -0.02 c0 -0.06 0.08 -0.26 0.08 -0.82 c0 -0.06 -0.08 -0.2 -0.08 -0.66 c0 -1.68 -0.3 -2.18 -0.34 -2.82 l-0.02 0.02 c-0.06 0 0.04 -0.38 -0.22 -0.64 c-0.58 -0.58 -0.56 -0.78 -0.66 -0.82 c-0.04 0 -0.28 -0.24 -0.32 -0.24 c0 0.02 0 0.06 -0.02 0.06 c-0.08 0 -0.54 -0.48 -1.04 -0.48 c-0.46 0 -0.8 -0.12 -1.14 -0.12 c-0.74 0 -1.42 0.5 -1.84 0.5 c-0.34 0.08 -0.6 0.36 -0.9 0.88 c-0.02 0.04 -0.46 0.36 -0.46 0.96 c0 0.02 0.02 0.02 0.02 0.04 c0 0.08 -0.22 0.2 -0.22 1.02 c-0.04 1.14 -0.2 -0.38 -0.2 2.72 l0 1.9 c0 0.64 0.04 0.98 0.04 2.02 l0.04 0.06 c0 0.28 0.04 0.8 0.12 0.8 l0 0.58 z M10.04 19.2 l0 0.02 l0.04 0 z M3.84 18.84 c-0.02 0 -0.04 0.02 -0.04 0.02 c0 0.02 0.02 0.02 0.04 0.02 c0 0 0.02 0 0.02 -0.02 z M3.8 18.78 c-0.02 0 -0.04 0.02 -0.04 0.04 s0.02 0.02 0.04 0.02 s0.02 0 0.02 -0.02 s0 -0.04 -0.02 -0.04 z M3.96 18.24 l0 0.04 l0.04 0 l0 -0.04 l-0.04 0 z M2.28 17.46 c0.02 0.02 -0.02 0.04 0.06 0.04 c-0.02 -0.04 -0.06 -0.04 -0.06 -0.04 z M1.48 16.36 c-0.02 0 -0.04 0.02 -0.04 0.04 s0.02 0.04 0.04 0.04 s0.02 -0.02 0.02 -0.04 s0 -0.04 -0.02 -0.04 z M0.42 12.54 c0.02 0.02 0.02 0.04 0.04 0.04 l0.02 -0.02 z M12.16 7.16 l0 -0.02 c-0.02 0 -0.02 0 -0.02 0.02 s0 0.02 0.02 0.02 l0 -0.02 z M11.26 6.119999999999999 c0 0 -0.02 0.02 -0.02 0.04 s0.02 0.04 0.02 0.04 c0.02 0 0.02 -0.02 0.02 -0.04 s0 -0.04 -0.02 -0.04 z M3.96 5.58 c-0.06 0 -0.08 0 -0.12 0.04 l0.12 0 l0 -0.04 z M4.78 5.16 l-0.02 0 c0 0.02 0 0.04 0.02 0.04 l0 -0.04 z M8.56 4.84 c-0.08 0 -0.2 0.02 -0.26 0.04 l0 0.02 c0.06 0 0.26 0.02 0.26 -0.04 l0 -0.02 z M6.62 4.74 l-0.02 0.02 c0 0.02 0.06 0.04 0.1 0.04 l0 -0.16 c-0.08 0 -0.08 0.04 -0.08 0.1 z M8.86 4.779999999999999 c-0.02 0 -0.04 0.02 -0.04 0.02 c0 0.02 0.02 0.04 0.04 0.04 c0 0 0.02 -0.02 0.02 -0.04 z M5.92 4.779999999999999 c0 -0.02 -0.04 -0.02 -0.06 -0.02 s-0.06 0 -0.06 0.02 s0.02 0.02 0.06 0.02 c0 0 0.04 0 0.06 -0.02 z M6.08 4.74 l0 0.04 l0.06 0 l0 -0.04 l-0.06 0 z M7.08 4.619999999999999 c-0.02 0 -0.14 0.08 -0.22 0.12 l0.02 0.02 c0.08 0 0.2 -0.08 0.2 -0.14 z M7.98 4.619999999999999 l0 0.06 l0.04 0 l0 -0.06 l-0.04 0 z M18.54 20.06 l-2.06 -0.06 l-0.04 0.02 l0.08 -0.12 c-0.02 -0.02 -0.04 -0.04 -0.06 -0.04 c-0.04 0 -0.08 0.14 -0.14 0.2 l-1.18 0 c-0.08 -0.14 -0.2 -0.22 -0.2 -0.32 c0 -0.06 0.04 -0.14 0.04 -0.18 c0.08 -0.12 -0.12 -0.24 1.14 -0.24 c0.12 0 0.26 0.04 0.4 0.04 c0.2 0 0.4 -0.08 0.44 -0.42 c0 -0.68 -0.02 -1.28 -0.02 -1.98 c0 -0.36 0.02 -0.84 0.02 -1.24 c0 -0.86 0 -1.66 -0.06 -2.28 c0 -0.42 0.06 -1.48 0.06 -3.5 c0 -0.08 -0.02 -0.24 -0.02 -0.32 c0 -0.18 0.02 -0.2 0.02 -0.44 c0 -0.18 -0.04 -0.38 -0.04 -0.56 c0 -0.14 0.02 -0.24 0.04 -0.32 c0 -0.02 -0.02 -0.12 -0.02 -0.22 s0 -0.14 0.02 -0.22 l0 -2.22 l-0.12 -0.08 l-1.06 0 c-0.06 0.04 -0.18 0.04 -0.3 0.04 c-0.08 0 -0.22 0.02 -0.22 -0.02 c0 -0.02 -0.32 0.06 -0.32 -0.36 c0.12 -0.32 0.08 -0.28 0.32 -0.4 c2.46 0 2.24 0.04 2.9 0.04 c0.24 0 1.92 -0.04 2.38 -0.04 l0.12 0.04 l1.22 0 c0.18 0.06 0.18 0.18 0.24 0.32 c0 0.18 0.02 0.32 -0.24 0.38 c-0.24 0 -0.74 -0.04 -1.24 -0.04 c-0.78 0 -0.58 0.16 -0.72 0.44 l0 5.5 c0 0.06 -0.04 0.42 -0.04 0.48 c0 0.04 0.04 0.1 0.04 0.14 l0 1.16 c0 0.02 0.04 0.16 0.04 0.2 l-0.04 0.08 l0 3.38 c0 0.06 0.04 0.14 0.04 0.16 s-0.02 0.06 -0.04 0.14 l0 1.34 l-0.04 0.1 c0 0.56 0.06 0.62 0.32 0.72 c0.32 0 0.92 0.04 1.5 0.04 c0.74 0 1.44 -0.06 1.6 -0.28 c-0.04 0 0.44 -0.02 0.58 -0.22 c0.08 0.02 0.26 -0.36 0.56 -0.36 c0.52 -0.62 -0.1 0.1 0.78 -0.78 c-0.02 0 -0.04 0 -0.04 -0.02 c0 -0.06 0.42 -0.3 0.42 -0.52 c-0.04 0 0.56 -1 0.56 -1.18 c0 -0.62 0.36 -0.96 0.52 -1.04 c0.36 0.02 0.58 -0.28 0.58 0.78 c0 0.76 -0.1 1.76 -0.18 1.74 c0 0.04 0.02 0.1 0.06 0.16 c0 0.02 -0.08 0.54 -0.08 1.76 c0 0.48 -0.16 0.32 -0.3 0.62 c-1.12 0 -1.12 -0.06 -1.62 -0.06 c-0.24 0 -0.6 0.06 -0.7 0.06 l-1.34 -0.04 c-0.28 0 -0.62 -0.02 -0.78 -0.02 c0.02 0 -0.36 0.04 -0.58 0.04 c-0.1 0 -0.16 -0.02 -0.2 -0.08 c-0.02 0 -0.38 0.08 -0.42 0.1 c0 0 -0.02 -0.04 -0.2 -0.04 c-0.1 0 -0.38 0.04 -0.64 0.04 c-0.14 0 -0.16 -0.04 -0.28 -0.04 c-0.04 0 -0.78 0.08 -1.04 0.08 c-0.06 0 -0.36 -0.04 -0.42 -0.04 z M15.340000000000002 19.72 c-0.04 0 -0.04 0.24 -0.04 0.28 l0.04 0 l0 -0.28 z M16 19.72 c0 0.04 0.08 0.2 0.16 0.28 c0.04 -0.04 0.08 -0.22 0.1 -0.2 c0 -0.02 -0.12 -0.08 -0.22 -0.08 l-0.04 0 z M15.920000000000002 19.92 c-0.02 0 -0.02 0.02 -0.02 0.04 s0 0.04 0.02 0.04 s0.02 -0.02 0.02 -0.04 s0 -0.04 -0.02 -0.04 z M21.54 19.86 l0 0.04 l0.04 -0.04 l-0.04 0 z M21.96 19.8 c0 0.06 0.02 0.06 0.04 0.1 c0.1 0 0.08 -0.06 0.12 -0.14 c-0.06 0 -0.12 0 -0.16 0.04 z M22.200000000000003 19.8 l0 0.1 c0.08 0 0.08 -0.04 0.08 -0.1 l-0.08 0 z M22.5 19.8 l0 0.06 l0.04 0 l0 -0.06 l-0.04 0 z M21.020000000000003 19.8 l0 0.04 l0.04 0.02 z M15.14 19.72 c-0.04 0.02 -0.06 0.02 -0.06 0.02 c0 0.04 0.08 0 0.08 0.1 z M16.98 19.72 c-0.04 0.02 -0.1 0.02 -0.12 0.04 c0.08 0 0.12 -0.02 0.12 -0.04 z M23.880000000000003 19.68 c0 -0.02 0 -0.02 -0.02 -0.02 l0 0.06 c0.02 0 0.02 -0.02 0.02 -0.04 z M23.340000000000003 19.56 c-0.06 0 -0.04 0.04 -0.08 0.08 c0.08 0 0.08 -0.06 0.08 -0.08 z M24.200000000000003 19.52 c0.02 0.02 0.02 0.1 0.08 0.12 c0 -0.1 0 -0.12 -0.04 -0.16 z M15.16 19.52 l0.1 0.04 l0.04 -0.04 l-0.04 -0.04 c-0.08 0 -0.08 0 -0.1 0.04 z M26.98 17.36 c-0.02 0 -0.04 0.02 -0.04 0.02 c0 0.02 0.02 0.02 0.04 0.02 s0.02 0 0.02 -0.02 c0 0 0 -0.02 -0.02 -0.02 z M19.34 16.32 l0 0.1 l0.14 0 c0 -0.04 -0.06 -0.1 -0.1 -0.1 l-0.04 0 z M26.98 16.34 c-0.02 0 -0.04 0.02 -0.04 0.04 s0.02 0.04 0.04 0.04 s0.02 -0.02 0.02 -0.04 s0 -0.04 -0.02 -0.04 z M27.04 15.32 c0 0.1 0 0.2 0.02 0.28 l0.08 0 l0 -0.28 l-0.1 0 z M26.72 15.26 c0 0.02 0.02 0.08 0.04 0.1 c0.04 0 0.1 -0.02 0.1 -0.04 c0 -0.06 -0.02 -0.08 -0.08 -0.08 c-0.02 0 -0.04 0 -0.06 0.02 z M17.1 9.14 l0 0.04 l0.04 0 l0 -0.04 l-0.04 0 z M17.1 7.119999999999999 c0 -0.02 -0.02 -0.02 -0.02 -0.02 c-0.02 0 -0.02 0 -0.02 0.02 s0 0.02 0.02 0.02 c0 0 0.02 0 0.02 -0.02 z M15.700000000000001 5.4 l0 0.04 l0.08 0 c-0.06 -0.04 -0.08 -0.02 -0.08 -0.04 z M15.180000000000001 5.16 c-0.02 0 -0.02 0.16 -0.02 0.2 l0.02 -0.08 l0.14 0 c0 -0.08 -0.08 -0.12 -0.14 -0.12 z M15.580000000000002 5.18 c0.04 0.08 0.04 0.1 0.1 0.1 c0 -0.1 -0.06 -0.1 -0.1 -0.1 z M18.6 5.18 l0 0.04 l0.14 0 l0 -0.04 l-0.14 0 z M20.6 5.18 c0.02 0.04 0.06 0.06 0.08 0.06 s0.04 -0.02 0.06 -0.02 z M21.54 5.119999999999999 c0 0.08 0.4 0.1 0.42 0.1 c-0.06 -0.14 -0.16 -0.08 -0.26 -0.14 c-0.04 0 -0.12 0.04 -0.16 0.04 z M16.42 5.16 c0 0.04 0.02 0.02 0.12 0.02 l0 -0.06 s-0.08 0.02 -0.12 0.04 z M18.12 5.16 c-0.02 0 -0.04 0 -0.04 0.02 s0.02 0.04 0.04 0.04 s0.02 -0.02 0.02 -0.04 s0 -0.02 -0.02 -0.02 z M19.12 5.16 c0 0 -0.02 0 -0.02 0.02 s0.02 0.04 0.02 0.04 s0.02 -0.02 0.02 -0.04 s-0.02 -0.02 -0.02 -0.02 z M20.900000000000002 5.18 c0 -0.02 -0.02 -0.02 -0.04 -0.02 s-0.04 0 -0.04 0.02 s0.02 0.04 0.04 0.04 s0.04 -0.02 0.04 -0.04 z M27.700000000000003 19.72 l0 -0.1 l0.24 -0.24 l0.98 0 l0.08 0.04 l0.46 0.04 c0.08 0.04 0.18 -0.26 0.24 -0.26 l0 -2.42 c0 -0.02 -0.04 -0.26 -0.04 -0.28 c0 0 0.04 -0.48 0.04 -0.58 c0.04 -0.06 -0.06 0.08 -0.06 -0.32 c0 -0.04 0.06 -0.08 0.06 -0.16 c0 -0.14 -0.04 -0.22 -0.04 -0.32 c0 -0.04 0.04 -0.18 0.04 -0.26 l0 -1.26 c0 -0.18 -0.06 -0.5 -0.06 -0.74 l0.02 -1.72 c-0.02 -0.08 -0.02 -0.6 -0.02 -0.7 c0 -0.06 0.02 -0.52 0.02 -0.58 c0 -0.02 -0.02 -1.04 -0.02 -1.16 c0 -1.24 0.02 -1.46 0.02 -2 c0 -0.24 0 -0.76 -0.02 -0.92 l-0.12 -0.14 s-0.4 -0.02 -0.56 -0.02 c-0.26 0 -0.46 0.06 -0.7 0.06 c-0.22 -0.04 -0.44 0.12 -0.64 -0.34 c0 -0.18 0.04 -0.4 0.22 -0.44 c4.08 0 4.5 0.04 6.12 0.04 c3.88 0 3.66 -0.04 5.28 -0.04 c0.2 0 0.42 3.66 0.42 3.84 c0 0.02 0.02 0.02 0.02 0.04 c0 0.24 -0.36 0.42 -0.48 0.42 c-0.26 0 -0.4 -0.28 -0.48 -0.6 c0.08 0 -0.86 -1.54 -0.82 -1.46 c-0.26 -0.26 -0.28 -0.3 -0.44 -0.5 c0 -0.18 -0.86 -0.58 -0.96 -0.72 c0 0.02 -0.02 0.02 -0.02 0.02 c-0.06 0 -0.12 -0.24 -0.54 -0.24 c-0.56 0 -0.52 -0.08 -1.38 -0.08 l0 -0.04 l-0.62 0 l-0.04 0.04 l-0.26 0 l0.14 -0.04 c-0.46 0 -0.66 -0.06 -0.78 -0.06 c-0.18 0 -0.4 0.1 -0.4 0.68 c0 1.12 0.04 1.72 0.04 2 c0 0.3 -0.04 1.18 -0.04 1.3 c0 0.34 0.08 0.62 0.08 0.86 c-0.04 0 -0.08 0.14 -0.08 0.2 s0.08 0.44 0.08 0.62 c0 0.04 -0.04 0.1 -0.04 0.12 c0 0.06 -0.06 0.82 0.14 0.82 c0.46 0 0.8 -0.12 1.16 -0.12 l0 0.02 c0.06 0 0.24 -0.3 0.38 -0.3 c0.24 0 0.28 -0.08 0.54 -0.34 l0 0.02 c-0.02 0 0.34 -0.72 0.54 -0.96 c0.34 -0.16 -0.12 -1 0.88 -1 l0.06 0.04 c0 0.18 0.1 0.24 0.1 0.8 c-0.02 0.16 -0.04 0.68 -0.04 0.64 c0 0.22 0.04 0.56 0.04 0.84 c0 0.24 0 0.24 -0.04 0.36 c0 0.2 0.04 0.46 0.04 0.52 c0 0.26 -0.04 0.26 -0.04 0.46 c0 0.16 0.04 1.24 0.04 1.38 c0 0.08 -0.04 0.16 -0.04 0.28 l0 0.74 c0.02 0.02 -0.16 0.16 -0.26 0.16 c-0.64 0 -0.1 -0.12 -0.82 -1.42 c-0.56 -0.98 -0.74 -0.94 -1.06 -1.22 c0.02 0 -0.58 -0.2 -0.72 -0.2 l-0.06 -0.1 l-0.64 -0.02 c-0.3 0.16 -0.26 1 -0.26 0.68 c0 0.08 0.06 0.28 0.06 0.58 c0 0.14 -0.02 0.38 -0.06 0.6 c0 0.02 0.06 0.2 0.06 0.32 c0 0.2 -0.04 0.18 -0.04 0.26 c0 0.14 0.04 0.22 0.04 0.28 c-0.06 0.78 -0.08 2.18 -0.08 2.42 c0 1.26 -0.02 1.36 0.28 1.66 l0.86 0 c0.08 -0.02 0.18 -0.08 0.26 -0.08 c0.02 0 1.2 0.04 1.36 0.04 s0.02 -0.1 0.44 -0.1 c0.76 -0.3 0.72 -0.04 1.36 -0.54 c-0.02 0 -0.02 -0.02 -0.02 -0.02 c0 -0.06 0.5 -0.28 0.76 -0.6 c-0.02 0 -0.02 -0.02 -0.02 -0.02 c0 -0.3 0.88 -0.52 0.88 -1.24 c0 -0.08 0.36 -0.54 0.36 -0.66 c0.5 -1.26 0.18 -1.2 0.82 -1.2 c0.02 0 0.24 0 0.24 0.26 c0 1.3 -0.2 2.9 -0.2 3.8 c0 0.14 0.02 0.28 0.02 0.42 c0 0.24 -0.08 0.44 -0.56 0.44 l-7.7 0 c-1.16 0 -1.58 0.04 -3.72 0.04 c-0.38 -0.12 -0.28 -0.28 -0.28 -0.32 z M27.900000000000002 19.8 l0 -0.02 l0 0.06 c0 0.06 0.02 0.14 0.2 0.14 c0.04 0 0.1 0 0.16 -0.02 l0 -0.04 l-0.16 -0.18 c-0.02 0.04 -0.04 0.08 -0.08 0.1 c-0.02 0 -0.08 -0.02 -0.12 -0.06 l0 0.02 z M35 19.88 l0.02 0.04 c0.02 -0.02 0.02 -0.02 0.02 -0.08 z M34.22 19.84 c-0.06 0 -0.08 0 -0.1 0.04 l0.1 0 l0 -0.04 z M28.6 19.62 c0.04 0 0.12 0.04 0.14 0.04 c0.18 0 0.12 0 0.18 -0.04 c-0.04 0 -0.18 -0.04 -0.2 -0.04 c-0.08 0 -0.08 0 -0.12 0.04 z M39.58 19.62 c0.02 0.06 0.08 0.04 0.12 0.04 c-0.02 -0.04 -0.06 -0.04 -0.12 -0.04 z M30.14 19.62 c0 -0.02 -0.02 -0.02 -0.04 -0.02 s-0.04 0 -0.04 0.02 s0.02 0.04 0.04 0.04 s0.04 -0.02 0.04 -0.04 z M28.020000000000003 19.56 l0 0.02 l0.2 0 c-0.04 -0.02 -0.16 -0.02 -0.2 -0.02 z M29.860000000000003 16.9 l-0.02 -0.02 c-0.02 0 -0.02 0.02 -0.02 0.02 c0 0.02 0 0.04 0.02 0.04 c0 0 0.02 -0.02 0.02 -0.04 z M29.820000000000004 16.04 l0 0.08 c0.02 0 0.02 -0.02 0.02 -0.04 s0 -0.04 -0.02 -0.04 z M29.860000000000003 15.92 c0.02 0.04 0.06 0.04 0.12 0.04 c0 -0.04 0.02 -0.16 -0.04 -0.2 c0 0.04 -0.08 0.1 -0.08 0.16 z M29.980000000000004 15.54 c0 0.02 0 0.04 0.02 0.06 l0.02 -0.06 l-0.04 0 z M39.980000000000004 15.54 c-0.02 0 -0.04 0.02 -0.04 0.04 c0 0 0.02 0.02 0.04 0.02 s0.02 -0.02 0.02 -0.02 c0 -0.02 0 -0.04 -0.02 -0.04 z M40.08 15.5 c-0.02 0 -0.02 0.02 -0.02 0.04 c0 0 0 0.02 0.02 0.02 l0 -0.06 z M29.860000000000003 12.48 c-0.02 0 -0.04 0.02 -0.04 0.04 c0 0 0.02 0.02 0.04 0.02 s0.02 -0.02 0.02 -0.02 c0 -0.02 0 -0.04 -0.02 -0.04 z M30.000000000000004 12.48 c0 -0.02 0 -0.02 -0.02 -0.02 l0 0.04 c0.02 0 0.02 0 0.02 -0.02 z M29.860000000000003 11.6 l-0.02 -0.02 c-0.02 0 -0.02 0.02 -0.02 0.02 c0 0.02 0 0.04 0.02 0.04 c0 0 0.02 -0.02 0.02 -0.04 z M36.24 9.92 c0 -0.02 -0.02 -0.02 -0.04 -0.02 c0 0 -0.02 0 -0.02 0.02 s0.02 0.04 0.02 0.04 c0.02 0 0.04 -0.02 0.04 -0.04 z M39.08 8.96 c-0.02 0 -0.04 0.02 -0.04 0.04 c0 0 0.02 0.02 0.04 0.02 s0.02 -0.02 0.02 -0.02 c0 -0.02 0 -0.04 -0.02 -0.04 z M32.120000000000005 7.960000000000001 c-0.02 0.02 -0.02 0.06 -0.02 0.08 l0.22 0 c-0.02 -0.04 -0.1 -0.08 -0.2 -0.08 z M29.820000000000004 7.18 l0 0.08 c0.02 0 0.02 -0.02 0.02 -0.04 s0 -0.04 -0.02 -0.04 z M29.820000000000004 6.16 l0 0.08 c0.02 0 0.02 -0.02 0.02 -0.04 s0 -0.04 -0.02 -0.04 z M39.28 5.42 l0 0.2 l0.02 -0.1 c0 -0.04 0 -0.06 -0.02 -0.1 z M29.12 5.539999999999999 c-0.02 0 -0.02 0.02 -0.02 0.04 s0 0.04 0.02 0.04 s0.02 -0.02 0.02 -0.04 s0 -0.04 -0.02 -0.04 z M30.800000000000004 5.58 c0 -0.02 -0.02 -0.02 -0.02 -0.02 c-0.02 0 -0.02 0 -0.02 0.02 s0 0.04 0.02 0.04 c0 0 0.02 -0.02 0.02 -0.04 z M28.560000000000002 5.380000000000001 c-0.18 0 -0.08 0.14 -0.14 0.16 c0.12 0 0.14 -0.02 0.14 -0.06 c0 -0.02 -0.02 -0.04 -0.02 -0.06 s0.02 -0.02 0.02 -0.04 z M29.040000000000003 5.48 l0.06 0.04 l0.02 -0.04 l-0.04 -0.02 z M28.160000000000004 5.42 c-0.02 0 -0.02 0.02 -0.02 0.04 c0 0 0 0.02 0.02 0.02 s0.02 -0.02 0.02 -0.02 c0 -0.02 0 -0.04 -0.02 -0.04 z M28.360000000000003 5.34 l-0.14 0.04 l0.14 0 l0 -0.04 z M30.14 5.34 c-0.02 0 -0.04 0.02 -0.04 0.02 c0 0.02 0.02 0.02 0.04 0.02 c0 0 0.02 0 0.02 -0.02 z M32.160000000000004 5.34 l0 0.04 l0.02 0 z M28.46 5.34 l-0.04 0 c0 0.02 0 0.04 0.02 0.04 c0 0 0.02 -0.02 0.02 -0.04 z M28.92 5.32 c-0.04 0 -0.04 0.04 -0.04 0.04 c0.02 0 0.02 -0.02 0.04 -0.04 z M29.78 5.34 l-0.04 0 c0 0.02 0 0.04 0.02 0.04 c0 0 0.02 -0.02 0.02 -0.04 z M33.040000000000006 5.32 c-0.04 0 -0.08 0.02 -0.12 0.02 l0.14 0 z M27.860000000000003 5.32 c0 0 0 -0.02 -0.02 -0.02 l0 0.04 c0.02 0 0.02 0 0.02 -0.02 z M33.900000000000006 5.26 c0 0.08 0.02 0.04 0.04 0.06 c0 0 0.02 0 0.04 -0.02 l-0.04 -0.08 z M39.2 5.0600000000000005 l0 0.24 l0.04 0 c0 -0.06 0.02 -0.24 -0.04 -0.24 z M28.680000000000003 5.1 c-0.02 0 -0.04 0.02 -0.04 0.02 c0 0.02 0.02 0.02 0.04 0.02 s0.02 0 0.02 -0.02 c0 0 0 -0.02 -0.02 -0.02 z M28.020000000000003 5.1 l-0.02 -0.04 z M28.26 5.02 c-0.04 0.02 -0.06 0.04 -0.06 0.06 l0.02 0.02 l0.04 0 l0 -0.08 z M49.8 19.98 c-0.12 0 -0.32 -0.06 -0.32 -0.3 c0 -0.28 0.28 -0.2 0.42 -0.28 l1.3 0 c0.22 -0.24 0.2 -0.18 0.2 -0.58 c0 -0.22 -0.04 -1.9 -0.04 -2.12 c0 -1 0.02 -1.82 0.08 -2.64 c0 -0.06 0 -0.06 -0.04 -0.12 l0 -1.08 c-0.1 -0.1 -0.14 -0.34 -0.22 -0.34 c-0.72 0 -0.9 0.04 -1.26 0.04 c-0.08 0 -0.86 -0.04 -1.04 -0.04 l0 -0.04 l-0.28 0 l0.06 0.04 c-0.66 0 -0.58 0.06 -1.18 0.06 c-0.16 0 -0.78 -0.02 -0.98 -0.02 l-0.64 0 l-0.08 0.18 c0 1.06 -0.02 2.34 -0.08 2.76 c0 0.08 0.08 0.16 0.08 0.36 l0 3.36 c0 0.08 0.14 0.2 0.24 0.32 c0.44 0 0.94 -0.12 1.22 -0.12 c0.12 0 0.46 -0.02 0.46 0.36 c-0.04 -0.02 -0.06 -0.06 -0.06 -0.12 c-0.02 0 -0.1 0.08 -0.1 0.22 c0.04 0 0.06 0 0.1 -0.02 c-0.02 0.12 -0.14 0.12 -0.24 0.12 l0 -0.12 c-0.06 0 -0.14 0.08 -0.18 0.12 c-0.52 0 -4.32 0.06 -5.94 0.06 c-0.1 0 -0.24 -0.02 -0.32 -0.16 l0 -0.26 l-0.02 0 c0 -0.02 0.48 -0.22 0.48 -0.22 c0.3 0 0.48 0.1 1.1 0.1 c0.34 0 0.22 -0.14 0.36 -0.2 c0 -1.16 -0.04 -1.36 -0.04 -1.68 c0 -0.94 0.04 -1.28 0.04 -1.7 c0 -0.3 -0.04 -1.02 -0.04 -1.48 c0 -0.04 0.04 -0.28 0.04 -0.32 c0 -0.26 -0.04 -0.56 -0.04 -1.26 l0.04 -0.06 c0 -0.08 -0.04 -0.16 -0.04 -0.24 l0 -3.06 l0.06 -0.04 c0 -0.02 -0.06 -0.1 -0.06 -0.26 l0 -3.38 s-0.06 -0.04 -0.06 -0.08 c0 -0.2 -0.78 -0.18 -0.92 -0.2 c-0.02 0 -0.28 0.04 -0.38 0.04 c-0.42 0 -0.54 -0.08 -0.6 -0.22 c0 -0.16 -0.1 -0.36 0.38 -0.44 l6.22 0 c0.02 0.02 0.22 0 0.22 0.32 c0 0.16 -0.26 0.38 -0.34 0.38 l-0.04 0.02 s0.02 0 0.02 -0.02 c0 0 -0.08 -0.08 -0.6 -0.08 l-0.68 0 c-0.36 0 -0.36 0.94 -0.36 0.98 c0 0.06 0.04 0.16 0.04 0.28 c-0.04 0.12 -0.04 0.2 -0.04 0.28 c0 0.24 0.04 0.34 0.04 0.5 c-0.04 0.06 -0.04 0.12 -0.04 0.14 c0 0.08 0.04 0.16 0.04 0.22 l0 2.48 c0 0.1 -0.06 0.36 -0.06 0.36 c0 0.1 0.06 0.34 0.06 0.44 c-0.04 0.06 -0.04 0.08 -0.04 0.1 s0.06 -0.02 0.06 0.02 c0 0.08 -0.08 0.22 -0.08 0.36 c0 0.16 0.1 0.32 0.46 0.32 c1.18 0 2.06 -0.08 3.06 -0.08 c0 0 0.12 0.02 0.14 0.02 l1.2 0 c0.06 0 0.14 0.06 0.26 0.06 c0.18 0 0.56 -0.06 0.56 -0.36 c0 -1.26 -0.04 -1.42 -0.04 -2.06 c0 -0.12 0.04 -0.3 0.04 -0.5 c0 -0.6 -0.04 -1 -0.04 -1.44 l0.02 -0.14 s-0.02 -0.16 -0.02 -0.22 c0 -0.36 0.02 -0.5 0.02 -1.06 l-0.02 0.02 c-0.02 -0.06 0.12 -0.74 -0.3 -0.74 c-0.04 0 -0.1 0.02 -0.14 0.02 c-0.2 0 -0.56 -0.04 -0.54 -0.04 c-0.14 0 -0.26 0.04 -0.36 0.04 c-0.56 0 -0.6 -0.3 -0.6 -0.3 c0 -0.2 0.34 -0.4 0.9 -0.4 c0.02 0.02 -0.02 -0.02 0.22 0.04 c0.34 0 0.34 0.02 0.38 -0.04 c0.24 0 0.46 0.06 0.7 0.06 c0.04 0 0.08 -0.02 0.14 -0.06 c0.04 0 0.14 0.04 0.18 0.04 l1.72 0 c0.08 0 0.28 -0.04 0.36 -0.06 c0.04 0 0.04 0.06 0.04 0.06 l0.96 0 l0.06 -0.04 c0.3 0.08 0.76 0.04 0.94 0.08 l0.12 0.12 c0 0.3 0.04 0.66 -0.64 0.66 c0 -0.12 -1.16 -0.16 -1.16 -0.16 l0 0 c0 0.02 0.02 -0.04 -0.02 -0.04 c-0.06 0 -0.1 0.24 -0.18 1.8 c0 0.08 0.04 0.12 0.04 0.24 c0 0.06 0 0.1 -0.04 0.14 c0 0.02 0.04 0.1 0.04 0.14 l0.04 1.08 l0 8.12 c0 0.04 0.04 0.26 0.04 0.28 c0 0.06 -0.04 0.14 -0.04 0.4 c0 0.08 0 0.44 0.04 0.54 l0 0.1 c0 1 0.1 1.08 0.48 1.08 c0.1 0 0.22 -0.02 0.34 -0.02 c0.06 0 0.16 0.02 0.26 0.02 c0.12 0 0.24 -0.02 0.3 -0.08 c0.48 0.1 0.54 0.2 0.54 0.48 c0 0.12 -0.06 0.3 -0.52 0.3 c-0.68 0 -3.36 -0.14 -5.82 -0.14 z M41.12 19.92 l-0.02 -0.04 z M41.86 19.88 l0 0.04 l0.32 0 c0 -0.1 -0.1 -0.16 -0.16 -0.16 c-0.06 0.06 -0.12 0.14 -0.16 0.12 z M47.16 19.88 l0.06 0.04 c-0.02 0 -0.04 -0.02 -0.06 -0.04 z M51.18 19.88 l0 0.04 l0.02 -0.04 l-0.02 0 z M46.6 19.76 c0 0.14 0.06 0.12 0.08 0.16 l0 -0.18 c-0.04 0 -0.06 0 -0.08 0.02 z M50.56 19.86 l0 0.02 l0.04 0 z M51.32 19.86 l0 0.02 l0.02 0 z M50.1 19.78 l0 0.08 c0.02 -0.02 0.04 -0.04 0.04 -0.08 l-0.04 0 z M42.38 19.74 c0.1 0 0.16 0.02 0.26 0.08 c-0.04 0 0.1 0 0.1 -0.04 s-0.2 -0.1 -0.36 -0.12 l0 0.08 z M49.6 19.62 l-0.04 0.12 l0.04 0 l0 -0.12 z M41.16 19.58 c-0.02 0 -0.04 0.02 -0.04 0.04 s0.02 0.04 0.04 0.04 s0.02 -0.02 0.02 -0.04 s0 -0.04 -0.02 -0.04 z M51.9 19.58 l-0.04 0 c0 0.02 0 0.04 0.02 0.04 c0 0 0.02 -0.02 0.02 -0.04 z M43.24 13.96 c-0.02 0 -0.04 0.02 -0.04 0.04 c0 0 0.02 0.02 0.04 0.02 l0.02 -0.02 c0 -0.02 -0.02 -0.04 -0.02 -0.04 z M45.12 12.86 c-0.04 0 -0.06 0 -0.06 0.04 l0.06 0 l0 -0.04 z M43 11.5 c-0.02 0 -0.04 0.02 -0.04 0.04 s0.02 0.04 0.04 0.04 s0.02 -0.02 0.02 -0.04 s0 -0.04 -0.02 -0.04 z M42.92 9.5 l0.02 0 l-0.04 0 s-0.02 0 0.02 0 z M44.88 9.42 c0 0.02 -0.02 0.02 -0.02 0.04 s0.02 0.02 0.04 0.04 l0.02 -0.08 l-0.04 0 z M43 8 l0 0.04 l0.02 0.02 c0.02 0 0.04 -0.02 0.06 -0.06 l-0.08 0 z M42.96 7.66 l0.04 0.02 l0.04 -0.02 l-0.08 0 z M51.78 7.539999999999999 c-0.02 0 -0.02 0.02 -0.02 0.04 s0 0.04 0.02 0.04 s0.02 -0.02 0.02 -0.04 s0 -0.04 -0.02 -0.04 z M42.36 5.359999999999999 c0 0.02 0 0.04 0.02 0.06 c0.04 -0.02 0.04 -0.06 0.04 -0.08 c-0.04 0 -0.06 0.02 -0.06 0.02 z M54.06 5.359999999999999 l0 0.02 l0.02 0 c0 -0.02 0 -0.02 -0.02 -0.02 z M51.56 5.359999999999999 l-0.08 -0.02 z M54.82 5.34 c-0.02 0 -0.04 0.02 -0.04 0.02 s0.02 0.02 0.04 0.02 l0.02 -0.02 z M41.2 5.1 c-0.16 0 -0.16 0.08 -0.16 0.24 c0 0 0.16 0 0.16 -0.24 z M55.88 5.140000000000001 l0 0.16 l0.1 0 c0 -0.14 -0.12 -0.16 -0.1 -0.16 z M42.54 5.24 c0 0 -0.02 0.02 -0.02 0.04 l0.02 0.02 c0.02 0 0.02 -0.02 0.02 -0.02 c0 -0.02 0 -0.04 -0.02 -0.04 z M46.14 5.140000000000001 c0.02 0.04 0.04 0.08 0.04 0.12 c0.1 0 0.08 0 0.12 -0.02 c0 -0.08 -0.06 -0.1 -0.1 -0.1 l-0.06 0 z M50.82 5.18 c0 0 -0.02 0 -0.02 0.02 s0.02 0.04 0.02 0.04 c0.02 0 0.02 -0.02 0.02 -0.04 s0 -0.02 -0.02 -0.02 z M55.56 5 c0 0.02 0 0.18 0.1 0.24 c0 -0.04 0.02 -0.14 0.02 -0.24 l-0.12 0 z M49.6 5.08 l0 0.1 c0.04 -0.02 0.04 -0.06 0.04 -0.1 l-0.04 0 z M52.4 5.140000000000001 c-0.02 0 -0.02 0.02 -0.02 0.02 c0 0.02 0 0.02 0.02 0.02 s0.02 0 0.02 -0.02 c0 0 0 -0.02 -0.02 -0.02 z M53.519999999999996 5.1 l-0.02 0.02 c0 0.02 0.02 0.02 0.02 0.02 c0.02 0 0.02 0 0.02 -0.02 c0 0 0 -0.02 -0.02 -0.02 z M42.54 5.08 c0 0 -0.02 0.02 -0.02 0.04 l0.02 0.02 c0.02 0 0.02 -0.02 0.02 -0.02 c0 -0.02 0 -0.04 -0.02 -0.04 z M46.96 5.1 l-0.02 -0.02 c-0.02 0 -0.02 0.02 -0.02 0.02 c0 0.02 0 0.04 0.02 0.04 c0 0 0.02 -0.02 0.02 -0.04 z M46.14 5.039999999999999 c-0.02 0 -0.04 0.02 -0.04 0.04 c0 0 0.02 0.02 0.04 0.02 l0 -0.06 z M51.56 5.039999999999999 c-0.02 0 -0.02 0.02 -0.02 0.04 c0 0 0 0.02 0.02 0.02 s0.02 -0.02 0.02 -0.02 c0 -0.02 0 -0.04 -0.02 -0.04 z M55.28 5.08 c0 -0.02 -0.02 -0.02 -0.04 -0.02 s-0.04 0 -0.04 0.02 s0.02 0.02 0.04 0.02 s0.04 0 0.04 -0.02 z M76.84 20 c-0.74 0 -1.94 0.02 -2 0.02 c-0.64 0 -0.66 -0.04 -0.66 -0.24 c0 -0.36 0.42 -0.36 0.42 -0.46 l0.36 0 l0.08 0.04 l0.82 0 s0.1 -0.08 0.1 -0.1 c0 -0.38 -0.3 -0.36 -0.3 -0.58 l-0.24 -0.26 l0 -0.08 c-0.08 -0.04 -0.3 -0.24 -0.34 -0.3 c0 -0.32 -0.4 -0.2 -0.4 -0.56 c-0.34 -0.44 -0.28 -0.28 -0.94 -1.14 c0 -0.14 -0.5 -0.66 -0.62 -0.74 c0 -0.06 -0.22 -0.58 -0.6 -0.78 c0.02 -0.02 0.02 -0.04 0.02 -0.04 c0 -0.16 -1.06 -1.38 -1.22 -1.46 c0 -0.06 -0.4 -0.62 -0.48 -0.66 l-0.02 0.02 c-0.08 0 -0.16 -0.38 -0.3 -0.38 c-0.06 0 -0.1 1.78 -0.1 1.96 c0 0.08 0.02 0.44 0.02 0.66 l0 3.66 c0 0.06 0.04 0.46 0.04 0.54 c-0.02 0 -0.02 0.02 -0.02 0.02 c0 0.08 0.2 0.28 0.26 0.28 l0.86 0 l0.06 -0.02 l0.1 0.02 c0.04 0 0.08 0 0.12 -0.02 c0.54 0 0.56 0.24 0.56 0.54 c-0.04 0.04 -0.26 0.14 -0.5 0.14 c-0.04 0 -0.04 -0.06 -0.22 -0.06 c-0.48 0 -0.96 0.04 -1.5 0.04 c-0.28 0 -1.52 -0.04 -2.7 -0.04 l0.04 -0.02 l-0.14 0 l0.02 0.02 c-0.14 0 -0.36 0.06 -0.5 0.06 c-0.04 0 -0.1 0 -0.1 -0.04 c0 -0.02 0.06 -0.04 0.1 -0.06 c0 0 -0.04 -0.08 -0.04 -0.12 c-0.12 0.14 -0.4 0.14 -0.52 0.14 l0.16 0 c-0.06 0.02 -0.34 0.06 -0.42 0.06 l-0.04 0 c0.02 -0.04 0.08 -0.04 0.12 -0.06 l-0.24 0 l-0.06 0.06 s-0.32 0 -0.32 -0.08 l0 -0.36 c0.02 0 0.3 -0.2 0.54 -0.22 c0 0.02 0.02 0.02 0.04 0.02 c0.06 0 0.18 -0.04 0.26 -0.04 c0.12 0 0.2 0.04 0.28 0.04 c0.18 0 0.22 -0.02 0.32 -0.02 c0.06 0.02 0.18 0.06 0.24 0.06 c0.18 0 0.24 -0.28 0.3 -0.36 c0 -0.08 0 -0.22 -0.02 -0.3 c0 -0.02 0.02 -0.18 0.02 -0.22 c0 -0.02 -0.02 -0.38 -0.02 -0.48 c0 -0.08 0.02 -0.24 0.02 -0.42 c0 -0.26 -0.04 -1.04 -0.04 -3.12 c0 -0.18 0.02 -0.46 0.02 -0.62 c0 -0.32 -0.02 -0.82 -0.02 -1.22 c0 -0.16 0.02 -1.34 0.02 -1.38 c0 -0.08 -0.02 -0.26 -0.02 -0.32 c0 -0.14 0.02 -0.68 0.02 -0.8 l0 -4.36 c0 -0.26 -0.2 -0.2 -0.22 -0.32 c-0.24 0 -0.22 0.04 -0.34 0.04 l-1.3 0 c-0.04 -0.02 -0.16 -0.08 -0.16 -0.14 l0 -0.24 c0 -0.04 0.24 -0.24 0.36 -0.24 l0.92 0 c0.1 0 0.18 0.08 0.32 0.08 c0.04 0 0.74 -0.02 1.04 -0.08 c0.06 0 0.26 0.04 0.32 0.04 c0.08 0 0.26 0.02 0.4 0.02 c0.12 0 0.24 -0.02 0.26 -0.06 c0 0 0.32 0.04 0.46 0.04 c0.58 0 1.34 -0.1 2.02 -0.1 c0.34 0 0.74 0.04 0.82 0.22 c0 0.44 -0.14 0.46 -0.36 0.46 c-0.42 0 -0.44 -0.04 -0.64 -0.04 c-0.02 0.02 -0.06 0.02 -0.08 0.02 c-0.12 0 -0.32 -0.04 -0.5 -0.04 c-0.38 0 -0.42 0.38 -0.42 0.82 c0 0.2 0.02 0.5 0.02 1.04 c0 0.14 -0.06 1.12 -0.06 1.66 c0 0.18 0 0.34 0.04 0.4 c0 0.04 -0.02 0.1 -0.04 0.12 c0 0.24 0 0.28 0.04 0.38 c0 0.12 -0.04 2.16 0.14 2.16 c0.06 -0.06 0.9 -0.82 0.9 -0.98 c0.46 -0.04 -0.22 -0.24 0.8 -0.9 c0 -0.36 0.54 -0.2 0.54 -0.66 c1.34 -1.36 0.36 -0.48 1.1 -1.22 c0.44 -0.14 -0.42 0.2 0.9 -0.94 c0.08 0 0.28 -0.52 0.58 -0.7 c0.22 0 0.5 -0.6 0.84 -0.86 l0 -0.24 c-0.02 -0.02 -0.08 -0.04 -0.1 -0.06 l-1.52 0 c-0.16 0 -0.36 0 -0.36 -0.2 l0 0.02 l0 -0.02 c0 -0.1 0.04 -0.5 0.48 -0.5 c0.1 0 0.34 0.06 0.32 0.06 c0.12 0 0.08 0 0.14 -0.02 l0.72 0.02 l0.04 -0.06 c0.08 0 0.2 0.06 0.4 0.06 c0.02 -0.04 1.54 -0.06 1.8 -0.06 c0.18 0 0.38 -0.02 0.6 -0.02 c0.42 0 0.84 0.06 0.86 0.38 c0 0.22 -0.04 0.4 -0.48 0.4 c-0.28 0 -0.54 -0.06 -0.88 -0.06 l0.06 -0.02 c0 -0.04 0 -0.08 -0.06 -0.08 c-0.02 0 -0.02 0.02 -0.06 0.08 l-0.68 0 c-0.24 0.08 -0.24 0.26 -0.46 0.38 c0 0.32 -0.36 0.2 -0.54 0.68 c-0.12 0 -0.68 0.66 -0.72 0.8 c0.02 0 0.02 0 0.02 0.02 c0 0.06 -0.72 0.42 -0.72 0.74 c-1.56 1.56 -1.4 1.32 -1.46 1.52 c0.02 0.08 -0.72 0.52 -0.72 0.84 c0 0.12 0.18 0.3 0.18 0.44 c0.06 0.08 0.5 0.42 0.5 0.6 c0 0 0.34 0.6 0.86 1.12 c0 0.02 -0.02 0.02 -0.02 0.04 c0 0.12 0.38 0.28 0.5 0.62 c-0.08 0.06 0.46 0.4 0.5 0.54 c0 0.02 0.12 0.2 0.12 0.2 c0.12 0 1.04 1.3 1.1 1.34 c0 0.14 0.7 0.68 0.7 0.96 c0 0.06 0.38 0.34 0.42 0.46 c0 0.12 0.54 0.46 0.54 0.7 c0.44 0.48 0.24 0.36 0.58 0.7 c0.44 0.14 0.4 1.04 1.02 1.04 l1.18 0 c0.18 0.16 0.28 0.2 0.32 0.46 c0 0.34 -0.3 0.38 -0.46 0.38 c0 0 -0.3 -0.08 -0.6 -0.08 c-1.36 0 -1.7 -0.02 -3.5 -0.02 z M70.02000000000001 19.98 l-0.02 0.02 l0.02 0.02 c0.02 0 0.02 -0.02 0.02 -0.02 s0 -0.02 -0.02 -0.02 z M72.18 20 c0 0 -0.2 0 -0.18 0 c0 0.02 0.04 0.02 0.08 0.02 c0.06 0 0.1 0 0.1 -0.02 z M80.52000000000001 20 l-0.06 0 c0 0.02 0.02 0.02 0.02 0.02 c0.02 0 0.04 0 0.04 -0.02 z M65.7 19.86 c0 0.08 -0.02 0.12 0.08 0.12 c0.04 0 0.08 -0.06 0.08 -0.14 c0 0 -0.06 -0.16 -0.12 -0.2 c-0.02 0 -0.04 0.12 -0.04 0.22 z M74.7 19.94 l0.02 0.04 l0.08 -0.04 l-0.1 0 z M74.56 19.9 c-0.02 0 -0.02 0.02 -0.02 0.04 s0 0.04 0.02 0.04 s0.02 -0.02 0.02 -0.04 s0 -0.04 -0.02 -0.04 z M79.78 19.84 c-0.02 0 -0.04 0.02 -0.04 0.04 c0 0 0.02 0.02 0.04 0.02 s0.02 -0.02 0.02 -0.02 c0 -0.02 0 -0.04 -0.02 -0.04 z M71.7 19.78 c-0.02 0 -0.04 0.02 -0.04 0.04 c0 0 0.02 0.02 0.04 0.02 s0.02 -0.02 0.02 -0.02 c0 -0.02 0 -0.04 -0.02 -0.04 z M67.30000000000001 19.72 c-0.02 0 -0.04 0 -0.04 0.02 l0.04 0 l0.02 0 c0 -0.02 0 -0.02 -0.02 -0.02 z M71.94 19.64 l0.06 0.08 c0 -0.02 0.02 -0.04 0.02 -0.08 l-0.08 0 z M65.86 19.64 l0 0.04 l0.02 -0.04 l-0.02 0 z M66.10000000000001 19.64 l-0.06 0 c0 0.02 0.02 0.04 0.02 0.04 c0.02 0 0.04 -0.02 0.04 -0.04 z M66.60000000000001 19.64 l-0.04 0 c0 0.02 0 0.04 0.02 0.04 c0 0 0.02 -0.02 0.02 -0.04 z M79.82000000000001 19.58 l0.04 0.04 c0.06 0 0.06 -0.02 0.08 -0.04 l-0.12 0 z M80.56 19.48 c-0.02 0 -0.04 0.02 -0.04 0.04 s0.02 0.04 0.04 0.04 s0.02 -0.02 0.02 -0.04 s0 -0.04 -0.02 -0.04 z M79.04 19.26 c0 0.1 0.14 0.12 0.16 0.14 c0 -0.14 -0.1 -0.14 -0.16 -0.14 z M75.48 18.36 l0 0.02 l0.02 -0.02 l-0.02 0 z M67.68 14.84 l-0.02 0.02 c0 0.02 0.02 0.02 0.02 0.02 s0.02 0 0.02 -0.02 z M74.06 13.04 l0 0.04 l0.06 0 l0 -0.04 l-0.06 0 z M73.9 9.12 l-0.04 0.04 l0.2 0 z M74.26 8.74 l0.02 -0.04 z M74.56 8.5 c-0.02 0 -0.02 0.02 -0.02 0.04 s0 0.04 0.02 0.04 s0.02 -0.02 0.02 -0.04 s0 -0.04 -0.02 -0.04 z M74.52000000000001 8.14 c-0.02 0 -0.04 0.02 -0.04 0.04 s0.02 0.04 0.04 0.04 l0 -0.08 z M75.18 7.76 c-0.02 0 -0.02 0.02 -0.02 0.02 c0 0.02 0 0.02 0.02 0.02 s0.02 0 0.02 -0.02 c0 0 0 -0.02 -0.02 -0.02 z M75.64 7.32 c-0.02 0 -0.04 0.02 -0.04 0.04 c0 0 0.02 0.02 0.04 0.02 l0.02 -0.02 c0 -0.02 -0.02 -0.04 -0.02 -0.04 z M75.58000000000001 7.279999999999999 c-0.02 0 -0.04 0.02 -0.04 0.04 s0.02 0.04 0.04 0.04 s0.02 -0.02 0.02 -0.04 s0 -0.04 -0.02 -0.04 z M76.10000000000001 6.84 c-0.02 0 -0.04 0.02 -0.04 0.02 l0.06 0 z M75.64 6.74 c-0.02 0 -0.04 0.02 -0.04 0.04 c0 0 0.02 0.02 0.04 0.02 l0.02 -0.02 c0 -0.02 -0.02 -0.04 -0.02 -0.04 z M65.88000000000001 5.48 l0 0.04 l0.06 0 l0 -0.04 l-0.06 0 z M66.64 5.24 c-0.04 0 -0.04 0.04 -0.08 0.08 c0 0.02 0.02 0.02 0.02 0.04 c0 0.06 -0.32 0.08 -0.32 0.16 l0.3 0 c0.06 0 0.08 -0.12 0.08 -0.28 z M78.5 5.48 c0.02 0.02 0.18 0.04 0.22 0.04 c0.18 0 0.24 -0.04 0.32 -0.04 c0 -0.04 -0.04 -0.1 -0.08 -0.1 c-0.1 0.06 -0.28 0.1 -0.46 0.1 z M71.82000000000001 5.4399999999999995 l0 0.04 l0.04 -0.04 l-0.04 0 z M72.26 5.380000000000001 c-0.04 -0.02 -0.1 0.06 -0.1 0.1 c0.12 0.02 0.1 -0.04 0.1 -0.1 z M79.44 5.279999999999999 c0 0.02 -0.1 0.12 -0.1 0.16 l0 0.04 c0.12 -0.06 0.1 -0.06 0.1 -0.2 z M65.62 5.24 c0.04 0.06 0.04 0.1 0.04 0.18 l0.06 0 c0 -0.2 0.16 -0.22 0.32 -0.22 l0 -0.08 c-0.16 0 -0.4 -0.02 -0.42 0.12 z M78.02000000000001 5.380000000000001 c-0.02 0 -0.04 0.02 -0.04 0.02 c0 0.02 0.02 0.02 0.04 0.02 s0.02 0 0.02 -0.02 c0 0 0 -0.02 -0.02 -0.02 z M74.42 5.16 c0 0.1 -0.02 0.2 0.06 0.28 c0 0 0.08 -0.28 0.06 -0.28 l-0.12 0 z M77.82000000000001 5.119999999999999 c0.14 0 0.08 0.04 0.16 0.2 c0.06 0 0.06 -0.04 0.1 -0.08 l0.14 -0.08 l0 -0.04 c-0.08 0 -0.12 0 -0.16 0.04 l-0.08 -0.04 l0.08 -0.04 c-0.12 0 -0.16 0 -0.24 0.04 z M66.34 5.16 l0 0.12 l0.02 0 c0 -0.04 0 -0.1 -0.02 -0.12 z M66.80000000000001 5.16 c0 0.04 0 0.06 0.04 0.08 c0.12 0 0.12 -0.08 0.12 -0.08 l-0.16 0 z M67.62 5.24 l0.06 0 l0 -0.04 c-0.02 0 -0.04 0.02 -0.06 0.04 z M67.98 5.16 c0 0.04 0 0.06 0.04 0.08 l0 -0.08 l-0.04 0 z M78.60000000000001 5.119999999999999 l0.06 0.12 l0.02 -0.04 c0 -0.04 0 -0.08 -0.02 -0.12 z M67.24000000000001 5.16 c-0.02 0 -0.04 0.02 -0.04 0.04 s0.02 0.04 0.04 0.04 c0 0 0.02 -0.02 0.02 -0.04 s-0.02 -0.04 -0.02 -0.04 z M71.38000000000001 5.16 c0 0.04 0.08 0.08 0.1 0.08 c0.12 -0.02 0.16 -0.06 0.16 -0.08 s0 -0.04 -0.02 -0.04 c-0.06 0 -0.18 0.04 -0.24 0.04 z M68.4 5.16 c-0.02 0 -0.04 0.02 -0.04 0.04 s0.02 0.04 0.04 0.04 l0 -0.08 z M71.9 5.16 l0.04 0.04 c0.06 0 0.1 -0.04 0.16 -0.08 c-0.12 0 -0.12 0 -0.2 0.04 z M72.26 5.16 c-0.02 0 -0.04 0.02 -0.04 0.04 s0.02 0.04 0.04 0.04 c0 0 0.02 -0.02 0.02 -0.04 s-0.02 -0.04 -0.02 -0.04 z M75.64 5.16 c-0.02 0 -0.04 0.02 -0.04 0.02 c0 0.02 0.02 0.02 0.04 0.02 c0 0 0.02 0 0.02 -0.02 z M79.12 5.08 c0 0.08 0.04 0.12 0.06 0.12 l0.2 -0.12 l-0.08 -0.02 c-0.12 0 -0.16 0.02 -0.18 0.02 z M75.9 5.16 c0 -0.02 -0.02 -0.02 -0.02 -0.02 c-0.02 0 -0.02 0 -0.02 0.02 s0 0.04 0.02 0.04 c0 0 0.02 -0.02 0.02 -0.04 z M76.18 5.119999999999999 c-0.02 0 -0.04 0.02 -0.04 0.04 s0.02 0.04 0.04 0.04 s0.02 -0.02 0.02 -0.04 s0 -0.04 -0.02 -0.04 z M75.12 5.119999999999999 c0 -0.02 -0.02 -0.02 -0.06 -0.02 c0 0 -0.02 0 -0.02 0.02 s0.02 0.04 0.02 0.04 c0.04 0 0.06 -0.02 0.06 -0.04 z M77 5.08 c-0.02 0 -0.04 0.02 -0.04 0.04 s0.02 0.04 0.04 0.04 c0 0 0.02 -0.02 0.02 -0.04 s-0.02 -0.04 -0.02 -0.04 z M77.32000000000001 5.08 c-0.02 0 -0.04 0.02 -0.04 0.04 s0.02 0.04 0.04 0.04 c0 0 0.02 -0.02 0.02 -0.04 s-0.02 -0.04 -0.02 -0.04 z M77.66000000000001 5.08 l-0.04 0.04 l0.08 0 z M78.80000000000001 5.08 l0 0.04 l0.12 0 c-0.06 -0.04 -0.08 -0.04 -0.12 -0.04 z M84.70000000000002 19.46 l0.04 -0.04 c0 -0.02 0 -0.02 -0.04 -0.04 l0 0 l-0.02 0 c-0.02 0 -0.04 0 -0.06 0.04 l0 -0.02 s-0.02 0.04 -0.1 0.04 s-0.2 -0.02 -0.36 -0.14 c0 0.02 -0.02 0.02 -0.02 0.02 c-0.04 0 -0.2 -0.22 -0.26 -0.22 c-0.1 0 -0.38 -0.08 -1.62 -1.32 l0 -0.08 c-0.24 -0.12 -0.5 -0.46 -0.58 -0.62 c-0.04 -0.78 -0.62 -0.22 -0.62 -1.2 c-0.02 0 -0.06 0.04 -0.06 0.04 c0.02 0 0.02 0 0.02 -0.02 c0 -0.06 -0.48 -0.42 -0.48 -0.84 c-0.12 -0.9 -0.2 -0.54 -0.2 -1.16 l-0.04 -0.04 c0 -0.2 -0.06 -0.62 -0.16 -0.8 l0.02 -1.44 l0.06 -0.82 c0.02 -0.26 0.18 -0.38 0.2 -1.18 l0 0.02 c0.02 0 0.18 -0.7 0.32 -0.84 l-0.02 0.02 c-0.02 0 0.4 -0.54 0.4 -0.68 c0 -0.16 0.52 -0.44 0.52 -0.82 c0.2 -0.18 0 -0.08 0.86 -0.92 c0.22 0 0.14 -0.36 0.36 -0.36 l-0.02 -0.04 c0.06 0 0.2 -0.12 0.42 -0.34 c0.64 -0.42 -0.4 0.04 1.7 -0.94 c0 0 0.02 0.02 0.04 0.02 c0.22 0 0.68 -0.3 1 -0.3 c0.44 0 1.8 -0.08 1.98 -0.08 c0.7 0 0.9 0.26 1.1 0.26 c0.74 0.06 0.94 0.58 1.22 0.58 c0.02 0 0.02 -0.02 0.08 -0.02 c0.08 0 0.26 0.08 0.74 0.56 c0 0.14 0.24 0.14 0.32 0.26 l-0.04 0.04 c0.1 0.04 0.48 0.32 0.64 0.64 c0 0.06 0.36 0.18 0.36 0.38 c-0.02 0 -0.02 0 -0.02 0.02 c0 0.06 0.5 0.4 0.5 0.62 c-0.02 0 -0.04 0 -0.04 0.02 c0 0.06 0.4 0.3 0.4 0.6 c0.06 0.54 0.52 0.7 0.52 1.16 c-0.02 0.02 -0.02 0.04 -0.02 0.06 c0 0.16 0.34 0.46 0.34 1.1 c0 0.8 0.16 1.36 0.16 1.48 c0 0.34 -0.2 0.94 -0.2 1.68 c-0.16 0.9 -0.92 2.58 -1.12 2.72 c-0.04 0 -0.24 0.5 -0.42 0.58 c0 -0.02 -0.7 1.04 -1.16 1.22 c-0.3 0.2 -0.18 0.26 -1.22 0.98 c-0.04 0.06 -0.4 0.02 -0.6 0.2 c-1.72 0.58 -1.68 0.46 -1.8 0.58 l-1.38 0 c-0.06 0 -0.24 -0.1 -0.34 -0.1 c-0.04 0 -0.5 -0.26 -0.8 -0.26 c-0.4 0 -0.32 -0.24 -0.5 -0.26 z M87.18 19.88 c0 0 -0.02 0.02 -0.02 0.04 l0.02 0.02 c0.02 0 0.02 -0.02 0.02 -0.02 c0 -0.02 0 -0.04 -0.02 -0.04 z M87.76 19.88 c0 0.02 -0.02 0.02 -0.02 0.02 c0 0.02 0.02 0.02 0.06 0.04 l0.04 -0.06 l-0.08 0 z M87.9 19.84 c-0.02 0 -0.04 0.02 -0.04 0.04 s0.02 0.04 0.04 0.04 l0 -0.08 z M85.80000000000001 19.78 c0 -0.02 -0.02 -0.02 -0.02 -0.02 c-0.02 0 -0.02 0 -0.02 0.02 s0 0.04 0.02 0.04 c0 0 0.02 -0.02 0.02 -0.04 z M85.74000000000001 19.72 c-0.02 0 -0.04 0.02 -0.04 0.02 c0 0.02 0.02 0.04 0.04 0.04 l0 -0.06 z M87.18 19.72 l-0.02 0.02 l0.04 0 s0 -0.02 -0.02 -0.02 z M87.72000000000001 19.7 c0 0 -0.02 0.02 -0.02 0.04 l0.04 0 c0 -0.02 0 -0.04 -0.02 -0.04 z M86.46000000000001 19.66 c-0.02 0 -0.04 0.02 -0.04 0.04 c0 0 0.02 0.02 0.04 0.02 l0 -0.06 z M87.80000000000001 19.66 c-0.02 0 -0.04 0.02 -0.04 0.04 c0 0 0.02 0.02 0.04 0.02 s0.02 -0.02 0.02 -0.02 c0 -0.02 0 -0.04 -0.02 -0.04 z M88.54 19.5 c-0.02 0 -0.04 0.02 -0.04 0.04 c0 0 0.02 0.02 0.04 0.02 s0.02 -0.02 0.02 -0.02 c0 -0.02 0 -0.04 -0.02 -0.04 z M83.60000000000001 16.36 c0.06 0.2 0.14 0.3 0.14 0.56 c0 0.3 0.32 0.56 0.32 0.94 c0.26 0.4 -0.18 -0.04 0.8 0.96 c0.02 0 0.02 -0.02 0.02 -0.02 c0.06 0 0 0.24 0.44 0.24 c-0.02 0 0.5 0.34 1.18 0.34 l0.78 0 c0.88 0 1.58 -0.06 2.24 -0.72 c-0.02 0 0.5 -0.38 0.54 -0.58 c0 0.02 0 0.04 0.02 0.04 c0.08 0 0.46 -0.96 0.46 -1.32 c0 -1.78 0.32 -2.84 0.32 -3.12 c0 -0.06 -0.04 -0.26 -0.04 -0.46 c0 -0.62 0.04 -0.84 0.04 -1.1 c0 -0.06 -0.08 -0.66 -0.08 -0.7 c0 0 -0.02 0 -0.02 -0.02 c0 -0.06 0.08 -0.26 0.08 -0.82 c0 -0.06 -0.08 -0.2 -0.08 -0.66 c0 -1.68 -0.3 -2.18 -0.34 -2.82 l-0.02 0.02 c-0.06 0 0.04 -0.38 -0.22 -0.64 c-0.58 -0.58 -0.56 -0.78 -0.66 -0.82 c-0.04 0 -0.28 -0.24 -0.32 -0.24 c0 0.02 0 0.06 -0.02 0.06 c-0.08 0 -0.54 -0.48 -1.04 -0.48 c-0.46 0 -0.8 -0.12 -1.14 -0.12 c-0.74 0 -1.42 0.5 -1.84 0.5 c-0.34 0.08 -0.6 0.36 -0.9 0.88 c-0.02 0.04 -0.46 0.36 -0.46 0.96 c0 0.02 0.02 0.02 0.02 0.04 c0 0.08 -0.22 0.2 -0.22 1.02 c-0.04 1.14 -0.2 -0.38 -0.2 2.72 l0 1.9 c0 0.64 0.04 0.98 0.04 2.02 l0.04 0.06 c0 0.28 0.04 0.8 0.12 0.8 l0 0.58 z M89.92000000000002 19.2 l0 0.02 l0.04 0 z M83.72000000000001 18.84 c-0.02 0 -0.04 0.02 -0.04 0.02 c0 0.02 0.02 0.02 0.04 0.02 c0 0 0.02 0 0.02 -0.02 z M83.68 18.78 c-0.02 0 -0.04 0.02 -0.04 0.04 s0.02 0.02 0.04 0.02 s0.02 0 0.02 -0.02 s0 -0.04 -0.02 -0.04 z M83.84 18.24 l0 0.04 l0.04 0 l0 -0.04 l-0.04 0 z M82.16000000000001 17.46 c0.02 0.02 -0.02 0.04 0.06 0.04 c-0.02 -0.04 -0.06 -0.04 -0.06 -0.04 z M81.36000000000001 16.36 c-0.02 0 -0.04 0.02 -0.04 0.04 s0.02 0.04 0.04 0.04 s0.02 -0.02 0.02 -0.04 s0 -0.04 -0.02 -0.04 z M80.30000000000001 12.54 c0.02 0.02 0.02 0.04 0.04 0.04 l0.02 -0.02 z M92.04 7.16 l0 -0.02 c-0.02 0 -0.02 0 -0.02 0.02 s0 0.02 0.02 0.02 l0 -0.02 z M91.14000000000001 6.119999999999999 c0 0 -0.02 0.02 -0.02 0.04 s0.02 0.04 0.02 0.04 c0.02 0 0.02 -0.02 0.02 -0.04 s0 -0.04 -0.02 -0.04 z M83.84 5.58 c-0.06 0 -0.08 0 -0.12 0.04 l0.12 0 l0 -0.04 z M84.66000000000001 5.16 l-0.02 0 c0 0.02 0 0.04 0.02 0.04 l0 -0.04 z M88.44000000000001 4.84 c-0.08 0 -0.2 0.02 -0.26 0.04 l0 0.02 c0.06 0 0.26 0.02 0.26 -0.04 l0 -0.02 z M86.50000000000001 4.74 l-0.02 0.02 c0 0.02 0.06 0.04 0.1 0.04 l0 -0.16 c-0.08 0 -0.08 0.04 -0.08 0.1 z M88.74000000000001 4.779999999999999 c-0.02 0 -0.04 0.02 -0.04 0.02 c0 0.02 0.02 0.04 0.04 0.04 c0 0 0.02 -0.02 0.02 -0.04 z M85.80000000000001 4.779999999999999 c0 -0.02 -0.04 -0.02 -0.06 -0.02 s-0.06 0 -0.06 0.02 s0.02 0.02 0.06 0.02 c0 0 0.04 0 0.06 -0.02 z M85.96000000000001 4.74 l0 0.04 l0.06 0 l0 -0.04 l-0.06 0 z M86.96000000000001 4.619999999999999 c-0.02 0 -0.14 0.08 -0.22 0.12 l0.02 0.02 c0.08 0 0.2 -0.08 0.2 -0.14 z M87.86000000000001 4.619999999999999 l0 0.06 l0.04 0 l0 -0.06 l-0.04 0 z M95.00000000000001 19.82 l0 -0.1 c0.04 -0.04 -0.02 -0.38 0.42 -0.38 c0.34 0 0.4 0.02 0.58 0.02 c0.4 0 0.7 -0.02 0.76 -0.12 l0 -1.7 c0 -0.04 -0.02 -0.18 -0.02 -0.2 l-0.02 0.02 c-0.04 -0.04 0.04 0.18 0.04 -0.54 c0 -1.5 -0.02 -2.06 -0.02 -2.56 c0 -0.32 0 -0.94 0.04 -1.46 c0 -0.04 -0.08 -0.3 -0.08 -0.8 c0 -0.24 0.06 -0.24 0.06 -0.36 c0 -0.32 -0.02 -0.62 -0.02 -0.86 c0 -0.42 0.02 -0.74 0.02 -1.2 c0 -0.12 0.3 -0.1 0.36 -0.16 c0 0 0 -0.1 -0.18 -0.1 c0 0 -0.06 0 -0.12 0.08 c-0.02 0 -0.04 -0.02 -0.06 -0.08 l0 -3.38 c0 -0.26 -0.06 -0.42 -0.32 -0.42 c-0.38 0 -0.46 0.06 -1.14 0.06 c-0.54 0 -0.22 -0.08 -0.52 -0.26 c0 -0.48 1.5 -0.34 1.92 -0.4 l-0.06 0 c0 0.02 1.16 0.08 1.16 0.08 c0.04 0 0.08 0.02 0.12 0.02 c0.24 0 0.34 -0.1 0.52 -0.1 c0.08 0 0.16 0.02 0.26 0.02 c0.06 0 0.22 -0.02 0.32 -0.02 c0.24 0 0.96 0.02 1.18 0.02 c0.16 0 0.28 -0.06 0.6 -0.06 c0.1 0 1.84 0.04 2.06 0.04 c0.4 0 1.06 0.2 1.6 0.2 c0.76 0.08 0.3 0.18 1.06 0.36 c-0.02 0 -0.04 -0.02 -0.04 -0.02 c0 0.02 0.56 0.32 0.56 0.38 c0.24 0.06 0.6 0.56 0.78 0.72 l-0.02 -0.02 s0.54 0.76 0.54 1.44 c0 0.74 0 0.78 -0.16 1.28 c0 0.34 -0.46 0.94 -1.26 1.62 c-0.1 -0.04 -0.22 0.34 -0.58 0.34 c0.06 -0.2 -0.1 0.26 -0.66 0.3 c-0.02 -0.02 -0.04 -0.02 -0.04 -0.02 c-0.1 0 -0.24 0.18 -0.32 0.18 c-0.76 0.2 -1.1 0.12 -1.1 0.42 c0 0 -0.04 0.16 0.12 0.16 c0.22 -0.04 0.58 0.32 0.7 0.32 c0.42 0 0.5 0.38 0.84 0.38 c0.36 0.16 0.5 0.28 0.94 0.74 c0.44 1.3 0.78 0.6 0.78 1.58 c0 0.54 0.18 0.92 0.18 1.46 c0 0.08 -0.04 0.42 -0.04 1.12 c0.04 0.26 0.06 0.78 0.14 0.86 l0 -0.04 c0 0.02 -0.06 0.66 0.64 0.66 c0.48 0 0.7 -0.06 0.84 -0.06 c0 0 0.02 0.02 0.04 0.02 c0.04 0 0.14 -0.04 0.22 -0.04 s0.16 0.02 0.2 0.1 l-0.14 0 c0 0.1 0.06 0.1 0.06 0.14 c0.04 -0.02 0.06 -0.06 0.08 -0.06 l0.02 0 l0 0.26 c-0.06 0 -0.06 -0.06 -0.06 -0.14 c-0.04 0.02 -0.06 0.02 -0.16 0.06 c0 0.04 0.02 0.08 0.16 0.14 c-0.08 0.04 -0.1 0.14 -0.2 0.14 l0 -0.02 s-0.1 0.2 -0.7 0.2 c-0.22 0 -1.58 -0.08 -1.94 -0.1 c0 0.02 0 0.02 -0.02 0.02 c-0.16 0 -0.54 -0.4 -0.86 -0.4 l0.02 0 c0 -0.08 -0.9 -0.5 -0.92 -0.88 l0.02 0.02 c0 -0.02 -0.2 -0.2 -0.2 -0.26 c0 -0.04 0.02 -0.16 0.02 -0.28 c0 -0.06 -0.06 -0.06 -0.16 -0.1 c-0.14 -3.26 -0.44 -4.16 -0.74 -4.6 c-0.06 0.22 0.08 -0.24 -0.38 -0.46 c0 -0.14 -0.62 -0.36 -0.6 -0.44 c-0.04 0 -0.08 0.02 -0.1 0.02 c-0.42 0 -0.4 -0.4 -1.08 -0.4 l-1.08 0 c-0.22 0.46 -0.22 1.04 -0.22 1.32 c0 0.06 0 0.52 0.04 0.56 c0 0.02 -0.02 0.08 -0.06 0.28 c0 0.06 0.04 0.3 0.04 0.46 l0 -0.02 c0 0.12 -0.02 0.56 -0.02 0.7 c0 0.26 0.02 0.32 0.02 0.5 l0 2.32 c0 0.04 0.04 0.16 0.04 0.2 c0 0.06 -0.04 0.18 -0.04 0.26 c0 0.26 0.04 0.3 0.04 0.4 c-0.02 0.02 -0.04 0.02 -0.04 0.04 c0 0.06 0.28 0.1 0.82 0.1 c0.02 0 0.42 -0.04 0.44 -0.04 c0.56 0 0.56 0.04 0.68 0.2 c0 0.36 -0.08 0.42 -0.14 0.42 c-0.02 0 -0.04 -0.02 -0.08 -0.1 c-0.1 0 -0.12 0 -0.12 0.02 c0.16 0.18 -1.94 0.18 -2.16 0.18 l0.04 0 s-0.68 -0.02 -0.94 -0.08 c-0.8 0.08 -2.18 0 -2.74 0.2 c-0.24 0 -0.46 0 -0.46 -0.32 z M107.34000000000002 19.94 c-0.02 0 -0.04 0.02 -0.04 0.04 s0.02 0.04 0.04 0.04 c0 0 0.02 -0.02 0.02 -0.04 s-0.02 -0.04 -0.02 -0.04 z M107.88000000000001 19.76 c-0.14 0 -0.1 0.08 -0.16 0.18 c0 0 0.02 0.02 0.04 0.02 c0.06 0 0.12 -0.1 0.12 -0.2 z M96.04000000000002 19.88 c-0.04 0 -0.1 0 -0.14 0.02 c0.04 0 0.1 0 0.14 -0.02 z M96.08000000000001 19.88 l0 0.02 l0.04 0 z M96.80000000000001 19.9 l-0.02 -0.02 c-0.02 0 -0.02 0.02 -0.02 0.02 c0 0.02 0 0.04 0.02 0.04 c0 0 0.02 -0.02 0.02 -0.04 z M97.18000000000002 19.86 c-0.02 0.02 -0.04 0.02 -0.04 0.04 c0.02 0 0.06 0 0.08 -0.02 z M100.28000000000002 19.82 l0 0.06 l0.12 0 c-0.04 -0.04 -0.06 -0.06 -0.12 -0.06 z M101.06000000000002 19.86 c-0.02 0 -0.04 0.02 -0.04 0.02 s0.02 0.02 0.04 0.02 s0.02 -0.02 0.02 -0.02 s0 -0.02 -0.02 -0.02 z M107.96000000000001 19.7 c-0.02 0.06 0.08 0.16 0.08 0.18 c0.1 0 0.1 0 0.16 -0.02 c-0.06 -0.18 0 -0.22 -0.16 -0.3 c-0.06 0.04 -0.08 0.02 -0.08 0.14 z M100.00000000000001 19.82 l-0.04 0.04 l0.04 0 l0 -0.04 z M101.34000000000002 19.46 c0 0.18 0.12 0.18 0.12 0.32 l0.04 0 l0 -0.22 c-0.02 -0.04 -0.06 -0.08 -0.16 -0.1 z M95.34000000000002 19.5 l0 0.06 c0 -0.02 0.02 0.18 0.14 0.18 c0.02 0 0.06 -0.04 0.1 -0.08 c-0.02 0.02 -0.16 -0.16 -0.22 -0.16 l-0.02 0 z M95.68000000000002 19.7 c0 -0.02 -0.02 -0.02 -0.02 -0.02 c-0.02 0 -0.02 0 -0.02 0.02 c0 0 0 0.02 0.02 0.02 z M100.04000000000002 19.66 c-0.02 0 -0.02 0.02 -0.02 0.02 c0 0.02 0 0.02 0.02 0.02 s0.02 0 0.02 -0.02 c0 0 0 -0.02 -0.02 -0.02 z M100.66000000000001 19.6 l0 0.1 c0.04 -0.02 0.08 -0.04 0.1 -0.08 c-0.04 -0.02 -0.06 -0.02 -0.1 -0.02 z M95.34000000000002 19.36 c-0.02 0 -0.02 0.02 -0.02 0.04 s0 0.04 0.02 0.04 s0.02 -0.02 0.02 -0.04 s0 -0.04 -0.02 -0.04 z M104.56000000000002 18.84 c0.02 0.04 0.04 0.1 0.04 0.1 c0.02 0 0.02 0 0.02 -0.02 l0 -0.08 l-0.06 0 z M98.98000000000002 18.3 l0.08 0.04 c0.04 -0.02 0.04 -0.06 0.04 -0.1 c-0.06 0 -0.08 0.02 -0.12 0.06 z M103.72000000000001 17.5 c0.02 0 0.02 0.02 0.02 0.04 c0 0 0 0.02 -0.02 0.02 s-0.02 -0.02 -0.02 -0.02 c0 -0.02 0 -0.04 0.02 -0.04 z M103.96000000000001 17.48 c0.02 0.02 0.04 0.02 0.08 0.02 c-0.04 -0.02 -0.06 -0.02 -0.08 -0.02 z M97.02000000000001 15.4 c-0.02 0 -0.04 0.02 -0.04 0.04 s0.02 0.04 0.04 0.04 s0.02 -0.02 0.02 -0.04 s0 -0.04 -0.02 -0.04 z M96.86000000000001 14.879999999999999 c-0.02 0 -0.04 0.02 -0.04 0.04 s0.02 0.04 0.04 0.04 s0.02 -0.02 0.02 -0.04 s0 -0.04 -0.02 -0.04 z M103.54000000000002 12.48 c-0.02 0 -0.04 0.02 -0.04 0.02 c0 0.02 0.02 0.04 0.04 0.04 c0 0 0.02 -0.02 0.02 -0.04 z M98.76000000000002 12.14 l0 0.08 l0.02 0.02 c0.06 0 0.14 -0.08 0.14 -0.1 l-0.16 0 z M98.80000000000001 11.94 c0 0.02 -0.02 0.02 -0.02 0.02 c0 0.02 0.02 0.02 0.08 0.02 c0 0 0.02 0 0.06 -0.02 c-0.02 -0.06 0 -0.08 -0.06 -0.16 c-0.02 0 -0.08 0.12 -0.06 0.14 z M99.64000000000001 10.22 l0 1.02 c0 0.34 0.2 0.4 0.38 0.5 c3.18 -0.08 3.18 -0.52 3.48 -0.82 c-0.02 0 -0.02 -0.02 -0.02 -0.02 c0 -0.1 0.3 -0.3 0.3 -0.44 l-0.02 0 c0 -0.08 0.42 -0.74 0.42 -1.6 c0 -2.04 -0.56 -2.42 -0.64 -2.84 c0 -0.02 -0.6 -0.54 -1.3 -0.54 c-0.44 0 -0.54 0.04 -0.7 0.04 l-1.5 0 c-0.42 0 -0.26 0.2 -0.38 0.42 l0 1.58 l0.04 0.1 c0 0.78 -0.08 1.5 -0.08 2.2 c0 0.04 0 0.1 0.06 0.16 c0 0.04 -0.04 0.1 -0.04 0.24 z M97.02000000000001 9.78 c-0.02 0 -0.04 0.02 -0.04 0.02 l0.04 0 l0.02 0 s0 -0.02 -0.02 -0.02 z M96.96000000000001 9.68 c-0.02 0 -0.02 0.02 -0.02 0.04 c0 0 0 0.02 0.02 0.02 l0.02 -0.02 c0 -0.02 -0.02 -0.04 -0.02 -0.04 z M97.02000000000001 9.58 c-0.02 0 -0.04 0.02 -0.04 0.04 c0 0 0.02 0.02 0.04 0.02 s0.02 -0.02 0.02 -0.02 c0 -0.02 0 -0.04 -0.02 -0.04 z M96.86000000000001 8.42 l0 0.1 l0.04 0 c0 -0.04 0 -0.08 -0.04 -0.1 z M105.88000000000001 6.1 c0.02 0.04 0.08 0.04 0.1 0.04 l0 -0.12 c-0.06 0 -0.1 0 -0.1 0.08 z M104.36000000000001 5.42 c-0.02 0 -0.04 0.02 -0.04 0.04 s0.02 0.02 0.04 0.02 s0.02 0 0.02 -0.02 s0 -0.04 -0.02 -0.04 z M96.08000000000001 5.279999999999999 c0.04 0.02 0.08 0.02 0.12 0.02 l-0.08 -0.06 z M98.02000000000001 5.279999999999999 l0 -0.02 c-0.02 0 -0.02 0 -0.02 0.02 s0 0.02 0.02 0.02 l0 -0.02 z M102.70000000000002 5.24 l0.08 0.04 c0.1 0 0.1 -0.04 0.1 -0.14 c0 -0.02 -0.02 -0.02 -0.1 -0.02 c-0.04 0 -0.08 0 -0.08 0.12 z M100.66000000000001 5.119999999999999 c0 0.04 -0.02 0.12 0.04 0.12 c0.02 -0.02 0.04 -0.08 0.06 -0.12 l-0.1 0 z M103.46000000000001 5.199999999999999 c-0.02 0 -0.04 0.02 -0.04 0.02 c0 0.02 0.02 0.02 0.04 0.02 s0.02 0 0.02 -0.02 c0 0 0 -0.02 -0.02 -0.02 z M96.38000000000001 5.119999999999999 l0 0.04 c0 -0.02 0.06 0.04 0.1 -0.04 l-0.1 0 z M101.54000000000002 5.119999999999999 c-0.04 0 -0.06 0.02 -0.08 0.04 l0.08 0 l0 -0.04 z M95.00000000000001 5.119999999999999 l0.02 0 l0.48 0 l-0.5 0 z M112.62 19.46 l0.04 -0.04 c0 -0.02 0 -0.02 -0.04 -0.04 l0 0 l-0.02 0 c-0.02 0 -0.04 0 -0.06 0.04 l0 -0.02 s-0.02 0.04 -0.1 0.04 s-0.2 -0.02 -0.36 -0.14 c0 0.02 -0.02 0.02 -0.02 0.02 c-0.04 0 -0.2 -0.22 -0.26 -0.22 c-0.1 0 -0.38 -0.08 -1.62 -1.32 l0 -0.08 c-0.24 -0.12 -0.5 -0.46 -0.58 -0.62 c-0.04 -0.78 -0.62 -0.22 -0.62 -1.2 c-0.02 0 -0.06 0.04 -0.06 0.04 c0.02 0 0.02 0 0.02 -0.02 c0 -0.06 -0.48 -0.42 -0.48 -0.84 c-0.12 -0.9 -0.2 -0.54 -0.2 -1.16 l-0.04 -0.04 c0 -0.2 -0.06 -0.62 -0.16 -0.8 l0.02 -1.44 l0.06 -0.82 c0.02 -0.26 0.18 -0.38 0.2 -1.18 l0 0.02 c0.02 0 0.18 -0.7 0.32 -0.84 l-0.02 0.02 c-0.02 0 0.4 -0.54 0.4 -0.68 c0 -0.16 0.52 -0.44 0.52 -0.82 c0.2 -0.18 0 -0.08 0.86 -0.92 c0.22 0 0.14 -0.36 0.36 -0.36 l-0.02 -0.04 c0.06 0 0.2 -0.12 0.42 -0.34 c0.64 -0.42 -0.4 0.04 1.7 -0.94 c0 0 0.02 0.02 0.04 0.02 c0.22 0 0.68 -0.3 1 -0.3 c0.44 0 1.8 -0.08 1.98 -0.08 c0.7 0 0.9 0.26 1.1 0.26 c0.74 0.06 0.94 0.58 1.22 0.58 c0.02 0 0.02 -0.02 0.08 -0.02 c0.08 0 0.26 0.08 0.74 0.56 c0 0.14 0.24 0.14 0.32 0.26 l-0.04 0.04 c0.1 0.04 0.48 0.32 0.64 0.64 c0 0.06 0.36 0.18 0.36 0.38 c-0.02 0 -0.02 0 -0.02 0.02 c0 0.06 0.5 0.4 0.5 0.62 c-0.02 0 -0.04 0 -0.04 0.02 c0 0.06 0.4 0.3 0.4 0.6 c0.06 0.54 0.52 0.7 0.52 1.16 c-0.02 0.02 -0.02 0.04 -0.02 0.06 c0 0.16 0.34 0.46 0.34 1.1 c0 0.8 0.16 1.36 0.16 1.48 c0 0.34 -0.2 0.94 -0.2 1.68 c-0.16 0.9 -0.92 2.58 -1.12 2.72 c-0.04 0 -0.24 0.5 -0.42 0.58 c0 -0.02 -0.7 1.04 -1.16 1.22 c-0.3 0.2 -0.18 0.26 -1.22 0.98 c-0.04 0.06 -0.4 0.02 -0.6 0.2 c-1.72 0.58 -1.68 0.46 -1.8 0.58 l-1.38 0 c-0.06 0 -0.24 -0.1 -0.34 -0.1 c-0.04 0 -0.5 -0.26 -0.8 -0.26 c-0.4 0 -0.32 -0.24 -0.5 -0.26 z M115.10000000000001 19.88 c0 0 -0.02 0.02 -0.02 0.04 l0.02 0.02 c0.02 0 0.02 -0.02 0.02 -0.02 c0 -0.02 0 -0.04 -0.02 -0.04 z M115.68 19.88 c0 0.02 -0.02 0.02 -0.02 0.02 c0 0.02 0.02 0.02 0.06 0.04 l0.04 -0.06 l-0.08 0 z M115.82000000000001 19.84 c-0.02 0 -0.04 0.02 -0.04 0.04 s0.02 0.04 0.04 0.04 l0 -0.08 z M113.72000000000001 19.78 c0 -0.02 -0.02 -0.02 -0.02 -0.02 c-0.02 0 -0.02 0 -0.02 0.02 s0 0.04 0.02 0.04 c0 0 0.02 -0.02 0.02 -0.04 z M113.66000000000001 19.72 c-0.02 0 -0.04 0.02 -0.04 0.02 c0 0.02 0.02 0.04 0.04 0.04 l0 -0.06 z M115.10000000000001 19.72 l-0.02 0.02 l0.04 0 s0 -0.02 -0.02 -0.02 z M115.64000000000001 19.7 c0 0 -0.02 0.02 -0.02 0.04 l0.04 0 c0 -0.02 0 -0.04 -0.02 -0.04 z M114.38000000000001 19.66 c-0.02 0 -0.04 0.02 -0.04 0.04 c0 0 0.02 0.02 0.04 0.02 l0 -0.06 z M115.72000000000001 19.66 c-0.02 0 -0.04 0.02 -0.04 0.04 c0 0 0.02 0.02 0.04 0.02 s0.02 -0.02 0.02 -0.02 c0 -0.02 0 -0.04 -0.02 -0.04 z M116.46000000000001 19.5 c-0.02 0 -0.04 0.02 -0.04 0.04 c0 0 0.02 0.02 0.04 0.02 s0.02 -0.02 0.02 -0.02 c0 -0.02 0 -0.04 -0.02 -0.04 z M111.52000000000001 16.36 c0.06 0.2 0.14 0.3 0.14 0.56 c0 0.3 0.32 0.56 0.32 0.94 c0.26 0.4 -0.18 -0.04 0.8 0.96 c0.02 0 0.02 -0.02 0.02 -0.02 c0.06 0 0 0.24 0.44 0.24 c-0.02 0 0.5 0.34 1.18 0.34 l0.78 0 c0.88 0 1.58 -0.06 2.24 -0.72 c-0.02 0 0.5 -0.38 0.54 -0.58 c0 0.02 0 0.04 0.02 0.04 c0.08 0 0.46 -0.96 0.46 -1.32 c0 -1.78 0.32 -2.84 0.32 -3.12 c0 -0.06 -0.04 -0.26 -0.04 -0.46 c0 -0.62 0.04 -0.84 0.04 -1.1 c0 -0.06 -0.08 -0.66 -0.08 -0.7 c0 0 -0.02 0 -0.02 -0.02 c0 -0.06 0.08 -0.26 0.08 -0.82 c0 -0.06 -0.08 -0.2 -0.08 -0.66 c0 -1.68 -0.3 -2.18 -0.34 -2.82 l-0.02 0.02 c-0.06 0 0.04 -0.38 -0.22 -0.64 c-0.58 -0.58 -0.56 -0.78 -0.66 -0.82 c-0.04 0 -0.28 -0.24 -0.32 -0.24 c0 0.02 0 0.06 -0.02 0.06 c-0.08 0 -0.54 -0.48 -1.04 -0.48 c-0.46 0 -0.8 -0.12 -1.14 -0.12 c-0.74 0 -1.42 0.5 -1.84 0.5 c-0.34 0.08 -0.6 0.36 -0.9 0.88 c-0.02 0.04 -0.46 0.36 -0.46 0.96 c0 0.02 0.02 0.02 0.02 0.04 c0 0.08 -0.22 0.2 -0.22 1.02 c-0.04 1.14 -0.2 -0.38 -0.2 2.72 l0 1.9 c0 0.64 0.04 0.98 0.04 2.02 l0.04 0.06 c0 0.28 0.04 0.8 0.12 0.8 l0 0.58 z M117.84 19.2 l0 0.02 l0.04 0 z M111.64000000000001 18.84 c-0.02 0 -0.04 0.02 -0.04 0.02 c0 0.02 0.02 0.02 0.04 0.02 c0 0 0.02 0 0.02 -0.02 z M111.60000000000001 18.78 c-0.02 0 -0.04 0.02 -0.04 0.04 s0.02 0.02 0.04 0.02 s0.02 0 0.02 -0.02 s0 -0.04 -0.02 -0.04 z M111.76 18.24 l0 0.04 l0.04 0 l0 -0.04 l-0.04 0 z M110.08000000000001 17.46 c0.02 0.02 -0.02 0.04 0.06 0.04 c-0.02 -0.04 -0.06 -0.04 -0.06 -0.04 z M109.28000000000002 16.36 c-0.02 0 -0.04 0.02 -0.04 0.04 s0.02 0.04 0.04 0.04 s0.02 -0.02 0.02 -0.04 s0 -0.04 -0.02 -0.04 z M108.22000000000001 12.54 c0.02 0.02 0.02 0.04 0.04 0.04 l0.02 -0.02 z M119.96000000000001 7.16 l0 -0.02 c-0.02 0 -0.02 0 -0.02 0.02 s0 0.02 0.02 0.02 l0 -0.02 z M119.06000000000002 6.119999999999999 c0 0 -0.02 0.02 -0.02 0.04 s0.02 0.04 0.02 0.04 c0.02 0 0.02 -0.02 0.02 -0.04 s0 -0.04 -0.02 -0.04 z M111.76 5.58 c-0.06 0 -0.08 0 -0.12 0.04 l0.12 0 l0 -0.04 z M112.58000000000001 5.16 l-0.02 0 c0 0.02 0 0.04 0.02 0.04 l0 -0.04 z M116.36000000000001 4.84 c-0.08 0 -0.2 0.02 -0.26 0.04 l0 0.02 c0.06 0 0.26 0.02 0.26 -0.04 l0 -0.02 z M114.42000000000002 4.74 l-0.02 0.02 c0 0.02 0.06 0.04 0.1 0.04 l0 -0.16 c-0.08 0 -0.08 0.04 -0.08 0.1 z M116.66000000000001 4.779999999999999 c-0.02 0 -0.04 0.02 -0.04 0.02 c0 0.02 0.02 0.04 0.04 0.04 c0 0 0.02 -0.02 0.02 -0.04 z M113.72000000000001 4.779999999999999 c0 -0.02 -0.04 -0.02 -0.06 -0.02 s-0.06 0 -0.06 0.02 s0.02 0.02 0.06 0.02 c0 0 0.04 0 0.06 -0.02 z M113.88000000000001 4.74 l0 0.04 l0.06 0 l0 -0.04 l-0.06 0 z M114.88000000000001 4.619999999999999 c-0.02 0 -0.14 0.08 -0.22 0.12 l0.02 0.02 c0.08 0 0.2 -0.08 0.2 -0.14 z M115.78000000000002 4.619999999999999 l0 0.06 l0.04 0 l0 -0.06 l-0.04 0 z M121.26000000000002 5.800000000000001 c-0.1 0 -0.16 0.06 -0.24 0.06 c-0.28 0 -0.62 -0.18 -0.62 -0.3 l0 0.02 c0 -0.02 0 -0.46 0.5 -0.46 c0 0 0.84 0.04 1 0.04 c0.46 0 2.08 -0.04 2.5 -0.04 c0.16 0 1.48 0.04 1.64 0.04 c0.2 0 0.44 -0.02 0.64 -0.02 c0.36 0 0.54 0.06 0.54 0.38 c0 0.18 -0.12 0.2 -0.18 0.28 c-0.8 0 -0.94 -0.04 -1.22 -0.04 c-0.04 0 -0.36 0.04 -0.36 0.04 l-0.06 0.06 l0 0.22 c0.08 0.1 -0.08 0.36 0.2 0.7 c-0.02 0.04 -0.02 0.06 -0.02 0.1 c0 0.26 0.46 0.42 0.46 1.14 c-0.02 0 -0.02 0.02 -0.02 0.02 c0 0.06 0.18 0.24 0.3 0.78 c0.12 0 -0.08 0.14 0.28 0.58 c-0.02 0.02 -0.02 0.02 -0.02 0.04 c0 0.08 0.2 0.28 0.2 0.46 c0 0.04 0 0.08 -0.02 0.08 c0 0.04 0.32 0.42 0.32 0.88 c0 0.6 0.54 0.96 0.54 1.5 c0.08 0.54 0.38 0.7 0.38 1.04 c0.2 0.04 0.06 0.34 0.28 0.54 c-0.02 0 -0.04 0.02 -0.04 0.04 c0 0.08 0.22 0.28 0.22 0.56 c-0.02 0 -0.04 0 -0.04 0.02 c0 0.08 0.3 0.36 0.3 0.58 c0.12 0.36 0.14 0.42 0.18 0.62 c0.08 -0.02 0.36 0.2 0.66 -1.22 l0 0.02 c0.02 0 0.04 -0.58 0.26 -0.72 c0.08 0 -0.14 -0.16 0.34 -1.1 c0.26 -0.38 0.2 -0.92 0.4 -1.18 c0 0.02 0.1 -0.68 0.28 -0.82 c0 -0.1 0.12 -0.56 0.34 -1.1 c0 -0.08 0.34 -0.72 0.34 -0.88 c0.04 -0.02 0.04 -0.02 0.04 -0.04 s-0.04 -0.06 -0.04 -0.14 c0 -0.1 0.04 -0.22 0.2 -0.46 c0.16 -0.14 0.16 -0.76 0.32 -0.84 c0.1 -0.48 0.18 -0.6 0.2 -0.68 c0.06 0.04 0.04 -0.5 0.2 -0.74 c-0.06 -0.12 -0.18 -0.14 -0.28 -0.14 c-0.2 0 -0.2 0 -0.26 0.04 c-0.14 -0.06 -0.28 -0.06 -0.44 -0.06 l0 -0.02 c-0.28 0 -0.34 0.08 -0.52 0.08 c-0.02 -0.02 -0.04 -0.04 -0.06 -0.04 c-0.04 0 -0.1 0.02 -0.16 0.02 c-0.08 0 -0.18 -0.04 -0.28 -0.22 c0 -0.46 0.04 -0.18 0.38 -0.4 l3.86 0 c0.1 0 0.26 0.04 0.28 0.1 l-0.1 0 c0 0.02 0.04 0.1 0.04 0.1 c0.04 0 0.06 -0.02 0.1 -0.04 c0 0.6 -0.42 0.36 -0.48 0.48 c-0.16 0 -0.56 0.02 -0.62 -0.08 l-0.48 0 s-0.08 0.08 -0.12 0.16 c0 0 -0.36 0.4 -0.36 0.82 c-0.06 -0.02 0 0.3 -0.26 0.68 c0 0 0.02 0.02 0.02 0.04 c0 0.08 -0.2 0.34 -0.2 0.5 c0 0.04 0 0.06 0.02 0.08 c0 0.04 -0.16 0.44 -0.24 0.5 c0.02 0 0.04 0.02 0.04 0.06 c0 0.24 -0.52 1.22 -0.52 1.46 c-0.02 0 -0.08 0.4 -0.18 0.48 c-0.08 0.04 0 0.46 -0.28 0.88 c0 0.24 -0.44 0.7 -0.44 1.32 c-0.02 0 -0.14 0.38 -0.22 0.44 c-0.04 0 -0.08 -0.02 -0.08 -0.02 c0 0.2 0.02 0.16 0.02 0.32 c0 0.04 -0.22 0.4 -0.22 0.76 l0 -0.02 c-0.14 0 -0.84 2.26 -0.82 2.28 l0 0 c0.04 0.06 -0.2 0.3 -0.2 0.58 c0 0.38 -0.24 0.04 -0.24 0.76 c0 0.02 0.02 0.04 0.02 0.06 c0 0.12 -0.22 0.2 -0.22 0.5 c-0.08 1.02 -0.42 0.42 -0.42 1.12 c-0.06 0.24 0.06 0.68 -0.52 1.14 c-0.4 0 -0.6 -0.72 -0.6 -0.78 c-0.06 -0.02 0.04 -0.26 -0.3 -0.78 c0 -0.02 0.02 -0.02 0.02 -0.04 c0 -0.1 -0.2 -0.28 -0.2 -0.52 c0 -0.3 -0.44 -0.52 -0.44 -1.24 c0 -0.22 -0.34 -0.52 -0.34 -0.76 l0 0 c-0.04 0 -0.02 -0.36 -0.28 -0.78 l0.02 0.02 c0 -0.02 -0.24 -0.4 -0.28 -0.76 c0 -0.14 -0.34 -0.32 -0.34 -0.9 c0.02 0 0.04 -0.02 0.04 -0.04 c0 -0.14 -0.36 -0.42 -0.36 -0.86 c0 -0.26 -0.42 -0.56 -0.42 -0.94 c-0.16 -0.32 -0.2 -0.58 -0.28 -0.92 c0.02 0 0.02 0 0.02 -0.02 c0 -0.08 -0.5 -1.28 -0.5 -1.38 l0 -0.08 c0 0.02 -0.24 -0.6 -0.3 -0.62 c-0.1 0 0.06 -0.36 -0.32 -0.84 c0 0 0.02 -0.02 0.02 -0.04 c0 -0.14 -0.3 -0.46 -0.3 -0.66 c0 -0.34 -0.2 -0.6 -0.26 -0.9 c-0.08 0.16 0.02 -0.24 -0.16 -0.46 c-0.1 -0.46 -0.3 -0.34 -0.42 -0.48 l-0.76 0 z M128.00000000000003 20.28 l0 0.06 c0.04 0 0.06 0 0.08 -0.06 l-0.08 0 z M127.58000000000001 19.9 l-0.02 0.02 l0.04 0 s0 -0.02 -0.02 -0.02 z M128.3 19.74 c-0.08 0 -0.08 0.14 -0.1 0.16 c0.1 -0.02 0.1 0.02 0.1 -0.16 z M127.40000000000002 19 c-0.02 0.02 -0.02 0.04 -0.02 0.06 c0.02 0 0.02 -0.02 0.04 -0.04 z M130.46 13.4 l0.06 0.04 l0 -0.14 c-0.04 0.04 -0.06 0.04 -0.06 0.1 z M130.52 12.98 c-0.02 0 -0.04 0.02 -0.04 0.02 c0 0.02 0.02 0.02 0.04 0.02 s0.02 0 0.02 -0.02 c0 0 0 -0.02 -0.02 -0.02 z M130.62 12.74 c-0.1 0 -0.1 0.16 -0.1 0.16 l0.12 -0.12 z M127.34000000000002 12.82 c-0.02 0 -0.04 0.02 -0.04 0.04 c0 0 0.02 0.02 0.04 0.02 s0.02 -0.02 0.02 -0.02 c0 -0.02 0 -0.04 -0.02 -0.04 z M124.44000000000001 11.24 l0.04 0.06 l0.04 -0.02 c-0.04 -0.04 -0.06 -0.04 -0.08 -0.04 l0 0 z M131.66000000000003 9.98 c-0.02 0 -0.04 0.02 -0.04 0.02 c0 0.02 0.02 0.02 0.04 0.02 c0 0 0.02 0 0.02 -0.02 z M123.80000000000001 9.66 c-0.02 0 -0.04 0.02 -0.04 0.04 c0 0 0.02 0.02 0.04 0.02 l0 -0.06 z M131.78000000000003 8.78 c0 -0.02 -0.02 -0.02 -0.04 -0.02 s-0.02 0 -0.02 0.02 s0 0.04 0.02 0.04 s0.04 -0.02 0.04 -0.04 z M132.20000000000002 8.38 l0 0.02 l0.04 -0.02 l-0.04 0 z M122.96000000000002 7.18 c0.02 0 0.06 0.06 0.06 0.1 l0.04 -0.04 c0 -0.08 0 -0.22 -0.1 -0.22 c0 0.02 -0.1 0.08 -0.1 0.16 l0.04 0.04 z M132.58 6.58 l0 0.02 l0.04 0 z M123.34000000000002 5.640000000000001 c0 0.06 0 0.08 0.04 0.08 c0.02 0 0.04 -0.02 0.04 -0.02 c0 -0.02 -0.04 -0.06 -0.08 -0.1 l0 0.04 z M120.60000000000002 5.52 c0.02 0.02 0.06 0.08 0.1 0.12 l0.04 -0.04 l-0.02 0 s0.02 0 0.02 -0.02 c0 -0.04 -0.02 -0.06 -0.14 -0.06 z M131.38000000000002 5.6 c-0.02 0 -0.02 0.02 -0.02 0.02 c0 0.02 0 0.02 0.02 0.02 s0.02 0 0.02 -0.02 c0 0 0 -0.02 -0.02 -0.02 z M130.88000000000002 5.5600000000000005 c-0.02 0 -0.04 0.02 -0.04 0.04 s0.02 0.04 0.04 0.04 c0 0 0.02 -0.02 0.02 -0.04 s-0.02 -0.04 -0.02 -0.04 z M131.3 5.5600000000000005 l0 0.04 l0.02 0.02 c0.02 0 0.02 -0.02 0.04 -0.06 l-0.06 0 z M134.60000000000002 5.5600000000000005 l-0.02 0.02 c0 0.02 0.02 0.02 0.02 0.02 c0.02 0 0.02 0 0.02 -0.02 c0 0 0 -0.02 -0.02 -0.02 z M133.96 5.5600000000000005 c0 0 -0.02 -0.02 -0.04 -0.02 l-0.02 0.02 c0 0.02 0.02 0.04 0.02 0.04 c0.02 0 0.04 -0.02 0.04 -0.04 z M123.30000000000001 5.52 c-0.02 0 -0.04 0 -0.04 0.02 c0 0 0.02 0.02 0.04 0.02 s0.02 -0.02 0.02 -0.02 c0 -0.02 0 -0.02 -0.02 -0.02 z M122.72000000000001 5.4399999999999995 c-0.02 0.02 -0.04 0.04 -0.04 0.06 l0.02 0.02 c0.02 0 0.06 -0.02 0.1 -0.04 z M121.64000000000001 5.4399999999999995 l0.02 0.04 c0.04 0 0.06 0.02 0.08 -0.04 l-0.08 -0.04 z M122.50000000000001 5.4399999999999995 c-0.02 0 -0.02 0.02 -0.02 0.04 s0 0.04 0.02 0.04 s0.02 -0.02 0.02 -0.04 s0 -0.04 -0.02 -0.04 z M124.76000000000002 5.4399999999999995 l0.04 0.04 l0 -0.04 l-0.04 0 z M126.40000000000002 5.48 c0 -0.02 -0.02 -0.02 -0.04 -0.02 s-0.04 0 -0.04 0.02 s0.02 0.04 0.04 0.04 s0.04 -0.02 0.04 -0.04 z M127.04000000000002 5.380000000000001 c-0.02 0.08 0.04 0.12 0.06 0.1 c0 -0.06 0.02 -0.1 -0.06 -0.1 z M133.00000000000003 5.32 c-0.1 0 -0.1 0.1 -0.1 0.16 l0.32 0 c-0.08 0 -0.14 -0.12 -0.22 -0.16 z M134.04000000000002 5.279999999999999 c0 0.02 -0.02 0.08 -0.02 0.14 c0 0.04 0.02 0.06 0.04 0.06 l0.06 -0.08 l0 0.02 c0 -0.02 -0.04 -0.14 -0.08 -0.14 z M121.18000000000002 5.4399999999999995 c0 -0.02 -0.02 -0.02 -0.04 -0.02 c0 0 -0.02 0 -0.02 0.02 s0.02 0.04 0.02 0.04 c0.02 0 0.04 -0.02 0.04 -0.04 z M126.82000000000002 5.34 c-0.04 0.04 -0.04 0.06 -0.04 0.1 c0.04 -0.02 0.04 -0.06 0.04 -0.1 z M134.24 5.32 c0 0 0 0.06 0.04 0.06 c0.1 -0.02 0.08 -0.08 0.08 -0.16 c-0.1 0.02 -0.12 0 -0.12 0.1 z M130.68 5.279999999999999 c-0.04 0.04 -0.04 0.08 -0.04 0.08 c0 -0.02 0.04 0 0.04 -0.08 z M131.62000000000003 20.08 c-0.22 0 -0.22 0.02 -0.36 0.02 c-0.04 0 -0.22 -0.16 -0.28 -0.22 c0 0 0.04 -0.3 0.04 -0.36 c0.72 -0.06 1.24 -0.08 1.8 -0.14 c0.06 0 0 -0.38 0.22 -0.38 l0 -0.32 c0.02 0.02 0.04 0.02 0.04 0.02 c0.12 0 0.1 -0.56 0.26 -0.6 c0 -0.04 0.08 -0.72 0.28 -0.88 l0.1 -0.38 s0.68 -2.32 0.94 -2.32 c0.02 0 0.06 0.02 0.08 0.02 c0.1 0 0.12 -0.04 0.12 -0.08 c0 -0.18 -0.16 -0.1 -0.16 -0.24 c0 -0.36 0.36 -1.04 0.4 -1.08 c0.02 -0.82 0.32 -0.62 0.32 -1.14 l0 0.02 c0.02 0 0.18 -0.5 0.26 -0.56 c0 0.04 0.02 0.04 0.02 0.04 s-0.02 0 -0.02 -0.02 c0 -0.12 0.4 -0.94 0.4 -1.16 c0.1 0 0.12 -0.02 0.12 -0.06 s-0.02 -0.08 -0.02 -0.14 c0 -0.12 0.04 -0.24 0.18 -0.4 l0 0.02 c0.04 0 0.02 -0.44 0.18 -0.44 l0.08 -0.38 l0.12 -0.1 l0 -0.32 l0.16 -0.12 l0 -0.34 s0.12 -0.04 0.12 -0.08 c-0.02 0 -0.04 -0.04 -0.04 -0.06 c0 -0.26 0.5 -1.02 0.5 -1.54 l0.1 -0.08 l0 -0.32 c0 0.02 0.02 0.02 0.02 0.02 c0.28 0 -0.1 -1.16 0.94 -1.16 c0.08 0 0.44 0.22 0.44 0.52 c0.08 0.08 -0.08 0.28 0.28 0.94 c0.02 0 0.5 1.3 0.5 1.64 c0.18 0 0.06 0.4 0.52 1.36 c0.12 0.54 0.34 0.52 0.34 0.76 l0 -0.02 s0.1 0.64 0.18 0.64 l-0.02 0 c0 0.08 0.48 0.6 0.48 1.22 c0.12 0.58 0.32 0.34 0.32 0.84 l-0.02 -0.02 c0 0.04 0.32 0.46 0.32 0.72 c-0.02 0 -0.04 0 -0.04 0.02 c0 0.08 0.22 0.36 0.22 0.46 c0 0.02 -0.02 0.02 -0.02 0.04 c0 0.04 0.2 0.2 0.2 0.56 c0.08 0.7 0.42 0.74 0.42 1.18 c-0.02 0.04 -0.04 0.06 -0.04 0.08 c0 0.1 0.32 0.1 0.32 0.56 c0 1.14 0.78 1.4 0.78 2.2 c0.08 0.64 0.46 0.86 0.52 0.9 l1.3 0 c0.08 0 0.2 0.06 0.26 0.1 l0 0.36 c-0.08 0.04 -0.14 0.12 -0.46 0.12 c-0.04 0 -1 -0.04 -1.4 -0.04 c-0.18 0 -0.34 0.04 -0.5 0.04 c-0.02 0 -0.34 -0.04 -0.38 -0.04 c-1.08 0 -1.76 0.06 -2.18 0.06 c-0.02 0 -0.02 -0.06 -0.34 -0.06 c-0.16 0 -0.2 0 -0.28 0.04 c-0.1 0 -0.18 -0.04 -0.22 -0.1 c-0.04 0 -0.12 0.02 -0.12 0.02 l0.04 0.04 l-0.04 0.04 c-0.66 0 -0.72 0 -0.86 -0.12 l0.04 -0.34 c0 -0.04 0.14 -0.12 0.22 -0.12 l1.5 0 c0.02 0.02 0.16 -0.1 0.16 -0.2 c0 -0.04 -0.32 -0.46 -0.32 -0.7 c0.04 -0.02 0.04 -0.02 0.04 -0.06 c0 -0.1 -0.34 -0.36 -0.34 -0.88 c0.02 0 0.02 0 0.02 -0.02 c0 -0.04 -0.22 -0.2 -0.22 -0.36 c0 -0.72 -0.32 -0.72 -0.32 -1.26 l0 0.02 c-0.04 0 -0.22 -0.5 -0.4 -0.5 c-1.34 0 -2.76 0.04 -4.38 0.04 c0 0.08 -0.16 0.12 -0.16 0.34 c-0.3 0.66 -0.34 0.56 -0.34 0.88 c-0.24 0.16 0.02 0.28 -0.26 0.62 c-0.16 1.1 -0.38 0.48 -0.38 1.22 l0 -0.02 c-0.04 0 -0.22 0.52 -0.24 0.52 c0 0.32 0.08 0.32 0.2 0.4 l1.6 0 c0.1 0 0.3 0.02 0.3 0.26 s-0.06 0.36 -0.42 0.36 c-0.06 0 -0.14 -0.04 -0.24 -0.04 c-0.22 0 -0.3 0.04 -0.4 0.04 c-0.04 0 -0.14 -0.04 -0.16 -0.04 l-1.42 0 c-0.04 0.04 -0.08 0.04 -0.12 0.04 c-0.06 0 -0.16 -0.02 -0.24 -0.08 c0 0 0.04 -0.04 0.04 -0.08 l-0.06 0 c-0.04 0 -0.06 0 -0.06 0.04 l0.02 0.04 c-0.02 0.08 -0.04 0.08 -0.16 0.08 c0 -0.26 0 -0.2 0.06 -0.28 c-0.02 -0.08 0.02 -0.18 -0.04 -0.22 c0 0.14 -0.06 0.24 -0.18 0.32 c0 0.04 0.06 0.08 0.1 0.1 c-0.08 0 -0.3 0.1 -0.34 0.16 c-0.36 0 -0.32 -0.08 -0.54 -0.08 z M131.46000000000004 19.92 l0 0.04 l0.1 0 c-0.06 -0.04 -0.08 -0.04 -0.1 -0.04 z M131.8 19.96 c0 -0.02 -0.02 -0.02 -0.04 -0.02 s-0.04 0 -0.04 0.02 s0.02 0.04 0.04 0.04 s0.04 -0.02 0.04 -0.04 z M131.92000000000002 19.92 c-0.02 0 -0.04 0.02 -0.04 0.04 s0.02 0.04 0.04 0.04 s0.02 -0.02 0.02 -0.04 s0 -0.04 -0.02 -0.04 z M132.36 19.88 c-0.12 0 -0.28 0.04 -0.32 0.08 c0.34 0 0.24 -0.02 0.32 -0.08 z M133.02 19.9 c0 0.02 0.16 0.04 0.18 0.06 l0.04 -0.04 c-0.1 -0.02 -0.2 -0.02 -0.22 -0.02 z M134.50000000000003 19.92 c0.26 0 0.66 0.04 0.76 0.04 c-0.22 0 -0.22 -0.22 -0.24 -0.32 c0.02 0 -0.16 0.04 -0.16 0.16 c-0.04 0 -0.02 -0.12 -0.18 -0.12 c0 0.14 -0.08 0.18 -0.18 0.24 z M135.42000000000002 19.92 l0.04 0.04 c0.02 0 0.14 -0.04 0.18 -0.04 l-0.22 0 z M132.66000000000003 19.9 c-0.02 0 -0.04 0.02 -0.04 0.04 c0 0 0.02 0.02 0.04 0.02 s0.02 -0.02 0.02 -0.02 c0 -0.02 0 -0.04 -0.02 -0.04 z M134.24000000000004 19.92 c0 0 -0.04 -0.02 -0.06 -0.02 c-0.04 0 -0.04 0.02 -0.04 0.02 c0 0.02 0 0.04 0.04 0.04 c0.02 0 0.06 -0.02 0.06 -0.04 z M139.16000000000003 19.88 c0.02 0.02 0.08 0.04 0.1 0.04 s0.12 -0.02 0.16 -0.04 l0 -0.24 s-0.04 -0.02 -0.06 -0.02 c-0.18 0 -0.2 0.04 -0.2 0.12 l0 0.14 z M144.58 19.9 c0.06 0 0.08 0.02 0.18 0.02 c0.02 0 0.12 -0.02 0.18 -0.02 l-0.36 0 z M145.54000000000002 19.9 l0 0.02 l0.02 -0.02 l-0.02 0 z M139.72000000000003 19.88 l-0.04 0.02 l0.06 0.02 z M141.22000000000003 19.88 c-0.02 0 -0.04 0.02 -0.04 0.02 s0.02 0.02 0.04 0.02 s0.02 -0.02 0.02 -0.02 s0 -0.02 -0.02 -0.02 z M143.96000000000004 19.88 c0.02 0.02 0.04 0.02 0.1 0.02 l0.38 0 c-0.02 -0.02 -0.06 -0.04 -0.1 -0.06 c-0.04 0.04 -0.1 0.04 -0.12 0.04 c-0.18 0 -0.14 -0.14 -0.18 -0.14 z M131.14000000000001 19.74 c0 0.12 0 0.1 0.04 0.14 l0.26 0 l0 -0.34 c-0.28 0.14 -0.3 0.08 -0.3 0.2 z M135.36 19.78 l0 0.1 c0.04 0 0.06 -0.04 0.06 -0.04 c-0.02 -0.12 -0.08 -0.12 -0.08 -0.22 c-0.08 0 -0.12 0.04 -0.12 0.06 c0.02 0.04 0.04 0.1 0.14 0.1 z M145.14000000000001 19.84 c-0.02 0 -0.02 0.02 -0.02 0.04 s0 0.02 0.02 0.02 s0.02 0 0.02 -0.02 s0 -0.04 -0.02 -0.04 z M131.68000000000004 19.62 c0 0.16 -0.02 0.2 -0.06 0.22 c0.12 0 0.22 0 0.22 -0.12 s-0.02 -0.1 -0.16 -0.1 z M133.8 19.8 l0 0.04 l0.04 0 z M134.16000000000003 19.72 l0.04 0.02 l0 -0.06 z M135.46000000000004 19.58 c0 0.02 0 0.06 0.02 0.06 c0 0 0.08 0 0.08 -0.06 c0 -0.04 -0.04 -0.04 -0.08 -0.06 c-0.02 0.02 -0.02 0.04 -0.02 0.06 z M144.60000000000002 19.62 c0 0.02 0.04 0.02 0.06 0.02 c0 -0.1 0 -0.1 -0.04 -0.12 c0 0 -0.02 0.06 -0.02 0.1 z M145.48000000000002 19.48 c-0.1 0.02 -0.08 0.06 -0.08 0.16 l0.16 -0.1 c0 -0.02 -0.06 -0.04 -0.08 -0.06 z M143.96000000000004 19.54 c-0.02 0 -0.04 0.02 -0.04 0.02 c0 0.02 0.02 0.02 0.04 0.02 s0.02 0 0.02 -0.02 c0 0 0 -0.02 -0.02 -0.02 z M132.98000000000002 19.48 l0 0.06 l0.04 -0.06 l-0.04 0 z M133.04000000000002 19.18 c0 0.02 0.02 0.3 0.2 0.3 c-0.04 -0.02 -0.1 -0.2 -0.1 -0.3 l0.04 -0.12 l-0.04 -0.04 c-0.08 0 -0.1 0.12 -0.1 0.16 z M133.78000000000003 18.24 c-0.06 0.04 -0.14 0.16 -0.14 0.32 c0.02 0.02 0.04 0.02 0.04 0.02 c0.08 0 0.1 -0.12 0.12 -0.18 c0 -0.02 -0.02 -0.18 -0.02 -0.16 z M133.68000000000004 17.72 c0 -0.02 -0.02 -0.02 -0.02 -0.02 c-0.02 0 -0.02 0 -0.02 0.02 s0 0.02 0.02 0.02 c0 0 0.02 0 0.02 -0.02 z M134.24000000000004 16.28 c-0.02 0 -0.04 0.02 -0.04 0.02 s0.02 0.02 0.04 0.02 l0.02 -0.02 z M139.92000000000002 16 c-0.02 0 -0.02 0.02 -0.02 0.04 s0 0.04 0.02 0.04 s0.02 -0.02 0.02 -0.04 s0 -0.04 -0.02 -0.04 z M134.42000000000002 15.84 c-0.02 0 -0.02 0.02 -0.02 0.04 s0 0.04 0.02 0.04 s0.02 -0.02 0.02 -0.04 s0 -0.04 -0.02 -0.04 z M134.42000000000002 15.42 c-0.02 0 -0.02 0.02 -0.02 0.02 c0 0.02 0 0.02 0.02 0.02 s0.02 0 0.02 -0.02 c0 0 0 -0.02 -0.02 -0.02 z M135.34000000000003 14.6 c0.06 0.24 0.08 0.26 0.22 0.34 c0.24 0 0.9 -0.04 2.72 -0.04 c0.16 0 0.24 0.06 0.64 0.06 c0.2 0 0.4 -0.06 0.4 -0.28 c0 -0.1 -0.26 -0.48 -0.26 -0.68 l0.02 0 c0 -0.04 -0.22 -0.22 -0.22 -0.44 c0 -0.74 -0.38 -0.66 -0.38 -1.12 c0.02 0.02 0.02 0.04 0.02 0.04 c-0.02 0 -0.38 -0.66 -0.38 -1.04 c0 -0.26 -0.36 -0.64 -0.36 -1.08 l0.02 0 c0 -0.04 -0.22 -0.24 -0.22 -0.48 c-0.18 -0.42 -0.2 -0.38 -0.36 -0.38 c-0.58 1.38 -0.54 1.4 -0.72 1.74 c0 -0.04 -0.02 0.64 -0.28 0.74 l0 -0.04 c-0.02 0 -0.22 1.14 -0.42 1.32 c0 0.26 -0.44 0.6 -0.44 1.34 z M134.94000000000003 14.04 c-0.02 0 -0.04 0.02 -0.04 0.04 s0.02 0.04 0.04 0.04 s0.02 -0.02 0.02 -0.04 s0 -0.04 -0.02 -0.04 z M135.40000000000003 12.719999999999999 c-0.02 0 -0.04 0.02 -0.04 0.04 c0 0 0.02 0.02 0.04 0.02 l0 -0.06 z M136.24000000000004 11.54 l0 0.02 l0.02 0 z M136.16000000000003 11.22 c-0.02 0 -0.04 0.02 -0.04 0.04 l0.04 0 l0.02 0 c0 -0.02 0 -0.04 -0.02 -0.04 z M136.24000000000004 10.7 c-0.02 0 -0.04 0.02 -0.04 0.02 c0 0.02 0.02 0.04 0.04 0.04 c0 0 0.02 -0.02 0.02 -0.04 z M136.78000000000003 9.34 c0 -0.02 -0.02 -0.02 -0.02 -0.02 c-0.02 0 -0.02 0 -0.02 0.02 s0 0.04 0.02 0.04 c0 0 0.02 -0.02 0.02 -0.04 z M136.84000000000003 9.28 l-0.02 0 c0 0.02 0.02 0.02 0.02 0.02 s0.02 0 0.02 -0.02 l-0.02 0 z M139.02000000000004 7.880000000000001 c-0.02 0 -0.02 0.02 -0.02 0.04 s0 0.04 0.02 0.04 s0.02 -0.02 0.02 -0.04 s0 -0.04 -0.02 -0.04 z M138.64000000000001 5.1 c0 0 -0.02 0.02 -0.02 0.04 l0.04 0 c0 -0.02 0 -0.04 -0.02 -0.04 z M138.12000000000003 5.0600000000000005 c-0.02 0 -0.02 0.02 -0.02 0.04 s0 0.04 0.02 0.04 s0.02 -0.02 0.02 -0.04 s0 -0.04 -0.02 -0.04 z M138.28000000000003 5.0600000000000005 l0.08 0.04 c0.16 0 0.1 0 0.16 -0.04 l-0.06 -0.08 c-0.08 0 -0.12 0.08 -0.18 0.08 z M146.22000000000003 19.68 c0.1 -0.28 0.16 -0.34 0.38 -0.34 c0.66 0 0.8 0.06 1.28 0.06 c0.18 0 0.26 -0.16 0.34 -0.26 l-0.04 -3.08 c0 -0.04 0.04 -0.1 0.04 -0.14 c0 0.02 -0.04 -0.28 -0.04 -0.36 c0 -0.02 -0.02 -0.4 0.04 -0.58 c0 -0.02 -0.04 -0.08 -0.04 -0.12 l0 -1.42 c0.04 -0.04 0.04 -0.1 0.04 -0.14 c0 -0.12 -0.04 -0.18 -0.04 -0.28 c0 0 -0.06 -4.8 -0.06 -6.36 l0.04 -0.08 l0 -0.94 c-0.14 -0.2 -0.6 -0.06 -0.66 -0.16 l-0.12 0.04 l0 0.02 c-0.04 0 -0.16 -0.06 -0.38 -0.06 c-0.04 0 -0.24 0.04 -0.28 0.08 c-0.32 0 -0.54 0.06 -0.54 -0.36 c0 -0.16 0.1 -0.38 0.76 -0.38 c0.08 0 0.26 0.04 0.38 0.04 c0.08 0 1.12 -0.04 1.14 -0.04 c0.14 0 0.38 0.06 0.46 0.06 c0.08 0.02 1.12 -0.08 1.6 -0.08 c0.06 0 0.04 0.18 0.18 0.18 c0 0 0.02 0 0.02 -0.02 s-0.02 -0.06 -0.02 -0.1 c0.22 0 0.44 -0.06 0.76 -0.12 c0.02 0.02 0.1 0.04 0.08 0.06 c0.02 0 0.06 -0.04 0.06 -0.08 c0.02 0 0.12 0.02 0.16 0.06 c0.1 -0.02 0.36 -0.08 0.38 -0.08 c0.78 0 0.82 0.36 0.82 0.56 c0 0.1 -0.14 0.3 -0.24 0.3 c-0.4 0 -1.16 -0.1 -1.34 -0.1 c-0.16 0 -0.24 0.26 -0.26 0.38 l0.02 6.7 c0 0.1 -0.02 0.38 -0.02 0.42 c0 0.02 0.02 -0.02 0.02 0.3 c0 0.7 -0.02 0.98 -0.02 1.36 c0 0.54 0.02 0.48 0.02 0.62 l0 2.32 c0 0.1 -0.06 1.68 0.24 1.74 c0.04 0 0.76 0.02 1.1 -0.02 l0.04 -0.04 l0.36 0 c0.22 0.1 0.26 0.3 0.26 0.38 c0 0.1 -0.16 0.34 -0.22 0.34 c-0.94 0 -2.38 0.06 -2.58 0.06 c0 0 -0.6 -0.04 -0.9 -0.04 c-0.88 0 -2 0.06 -2.64 0.06 c-0.52 0 -0.58 -0.16 -0.58 -0.36 z M146.64000000000004 19.92 c0 -0.02 -0.02 -0.02 -0.04 -0.02 s-0.04 0 -0.04 0.02 s0.02 0.04 0.04 0.04 s0.04 -0.02 0.04 -0.04 z M146.76000000000005 19.88 c0.08 0 0.12 0.04 0.2 0.04 c0.04 0 0.1 0 0.16 -0.04 c-0.14 0 -0.18 -0.14 -0.24 -0.16 c-0.02 0 -0.12 0 -0.12 0.12 l0 0.04 z M147.16000000000003 19.88 c-0.02 0 -0.04 0.02 -0.04 0.04 s0.02 0.04 0.04 0.04 c0 0 0.02 -0.02 0.02 -0.04 s-0.02 -0.04 -0.02 -0.04 z M147.66000000000003 19.84 l0.04 0.04 c0.1 0 0.12 0 0.16 -0.04 l-0.04 -0.02 c-0.18 0 -0.12 0 -0.16 0.02 z M151.96000000000004 19.68 c-0.12 0.04 -0.1 0.08 -0.1 0.2 c0.1 -0.04 0.08 -0.1 0.12 -0.2 l-0.02 0 z M152.64000000000004 19.68 c-0.14 0 -0.14 0.14 -0.16 0.2 l0.24 0 c0 -0.14 -0.04 -0.2 -0.08 -0.2 z M151.14000000000004 19.82 l-0.06 0.02 c0 0.02 0 0.02 0.02 0.02 z M151.38000000000002 19.84 l-0.04 -0.02 z M152.88000000000002 19.64 l0 0.12 c0.06 0.02 0.1 -0.08 0.1 -0.12 l-0.1 0 z M146.52000000000004 19.52 c-0.14 0 -0.14 0.14 -0.14 0.2 c0.08 -0.06 0.2 -0.04 0.22 -0.08 c0 -0.02 0.02 -0.12 -0.08 -0.12 z M148.02000000000004 19.66 l0.04 0.06 l0 -0.06 l-0.04 0 z M146.84000000000003 19.56 l0 0.04 l0.04 -0.04 l-0.04 0 z M152.44000000000003 19.52 c0 0.02 -0.02 0.02 -0.02 0.04 s0.02 0.02 0.06 0.04 l0.04 -0.04 l-0.04 -0.08 c-0.02 0 -0.04 0.02 -0.04 0.04 z M152.76000000000005 19.56 c0.02 0.04 0.06 0.04 0.1 0.04 c0 -0.02 -0.02 -0.06 -0.02 -0.1 z M148.44000000000003 19.3 c-0.02 0.02 -0.02 0.02 -0.02 0.04 s0.06 0.02 0.1 0.02 l0 -0.06 l-0.08 0 z M150.80000000000004 6.4 c-0.02 0 -0.04 0 -0.04 0.02 l0.04 0 l0.02 0 c0 -0.02 0 -0.02 -0.02 -0.02 z M151.82000000000002 5.32 c-0.02 0 -0.04 0.02 -0.04 0.04 s0.02 0.04 0.04 0.04 s0.02 -0.02 0.02 -0.04 s0 -0.04 -0.02 -0.04 z M146.32000000000002 5.140000000000001 c-0.02 0 -0.04 0.02 -0.04 0.04 c0 0 0.02 0.02 0.04 0.02 s0.02 -0.02 0.02 -0.02 c0 -0.02 0 -0.04 -0.02 -0.04 z M147.46000000000004 5.039999999999999 c-0.02 0 -0.04 0.02 -0.04 0.04 c0 0 0.02 0.02 0.04 0.02 l0 -0.06 z M147.74000000000004 5.039999999999999 c0 0.02 -0.02 0.02 -0.02 0.02 c0 0.02 0.02 0.02 0.06 0.04 l0 -0.06 l-0.04 0 z M146.48000000000005 5.02 c-0.08 0 -0.06 0.02 -0.06 0.06 c0.04 0 0.08 0 0.1 -0.04 z"/></g>
			</g>
		</svg>
	